<?xml version="1.0" encoding="UTF-8" standalone="no"?>
<svg
   id="Layer_1"
   data-name="Layer 1"
   viewBox="0 0 253.00008 25.411314"
   version="1.1"
   sodipodi:docname="activecampaign.svg"
   width="253.00008"
   height="25.411314"
   inkscape:version="1.4.2 (ebf0e940, 2025-05-08)"
   xmlns:inkscape="http://www.inkscape.org/namespaces/inkscape"
   xmlns:sodipodi="http://sodipodi.sourceforge.net/DTD/sodipodi-0.dtd"
   xmlns="http://www.w3.org/2000/svg"
   xmlns:svg="http://www.w3.org/2000/svg">
  <sodipodi:namedview
     id="namedview18"
     pagecolor="#505050"
     bordercolor="#ffffff"
     borderopacity="1"
     inkscape:showpageshadow="0"
     inkscape:pageopacity="0"
     inkscape:pagecheckerboard="1"
     inkscape:deskcolor="#d1d1d1"
     inkscape:zoom="4.35"
     inkscape:cx="126.43678"
     inkscape:cy="13.103448"
     inkscape:current-layer="Layer_1" />
  <defs
     id="defs1">
    <style
       id="style1">.cls-1{fill:#004cff;}</style>
  </defs>
  <path
     class="cls-1"
     d="m 84.19,17.301313 a 0.93,0.93 0 0 0 -1.28,0 6.06,6.06 0 0 1 -4.07,1.57 c -2.69,0 -5.1,-1.76 -5.1,-5.73 0,-3.9699997 2.26,-5.7399997 4.71,-5.7399997 a 4.61,4.61 0 0 1 4.61,4.8099997 h -6.28 a 1,1 0 0 0 -1,1 v 0.93 h 8.43 a 1.26,1.26 0 0 0 1.27,-1.3 c -0.15,-4.6499997 -3.09,-7.5999997 -7,-7.5999997 -4.17,0 -7.26,3.39 -7.26,7.8999997 a 7.55,7.55 0 0 0 7.55,7.89 8.1,8.1 0 0 0 6.33,-2.94 z"
     id="path1" />
  <path
     class="cls-1"
     d="m 110.32,6.6713133 a 12.75,12.75 0 0 1 5.59,-1.33 c 4.17,0 6.47,2.16 6.47,6.1299997 v 9.27 h -1.42 a 1,1 0 0 1 -1,-1 v -1 a 6.66,6.66 0 0 1 -5.25,2.3 c -2.74,0 -5.69,-1.52 -5.69,-4.8 0,-3.28 2.45,-5 6.52,-5 h 2.55 v 0.94 a 1,1 0 0 1 -1,1 h -1.32 c -2.65,0 -4.22,1.12 -4.22,3 0,1.88 1.87,2.84 3.63,2.84 2.75,0 4.86,-1.67 4.86,-3.87 v -3.58 c 0,-2.5499997 -1.52,-3.9199997 -4.32,-3.9199997 a 10.28,10.28 0 0 0 -3.68,0.73 0.9,0.9 0 0 1 -1.22,-0.59 z"
     id="path2" />
  <path
     class="cls-1"
     d="m 52.12,2.7013133 h -1.47 a 1,1 0 0 1 -1,-1 v -1.46 h 1.47 a 1,1 0 0 1 1,1 z"
     id="path3" />
  <path
     class="cls-1"
     d="m 190.38,2.7013133 h -1.47 a 1,1 0 0 1 -1,-1 v -1.46 h 1.47 a 1,1 0 0 1 1,1 z"
     id="path4" />
  <path
     class="cls-1"
     d="m 35.65,7.9913133 a 8,8 0 0 0 -6.17,-2.8 7.92,7.92 0 0 0 0,15.8399997 8.1,8.1 0 0 0 6.27,-3 l -0.93,-0.88 a 1,1 0 0 0 -1.32,0 5.76,5.76 0 0 1 -3.92,1.67 5.48,5.48 0 0 1 -5.35,-5.69 5.37,5.37 0 0 1 5.25,-5.6399997 5.55,5.55 0 0 1 3.87,1.67 0.94,0.94 0 0 0 1.33,-0.05 z"
     id="path5" />
  <path
     class="cls-1"
     d="m 62.48,20.741313 a 1.63,1.63 0 0 0 1.47,-1 L 70.12,5.5713133 H 68.8 a 2,2 0 0 0 -1.86,1.22 L 62.56,17.351313 58.15,6.8113133 a 2,2 0 0 0 -1.86,-1.22 h -1.37 l 6.12,14.1699997 a 1.63,1.63 0 0 0 1.44,0.98 z"
     id="path6" />
  <path
     class="cls-1"
     d="m 46.04,18.091313 a 5.76,5.76 0 0 1 -2.3,0.59 2.07,2.07 0 0 1 -2.36,-2.36 V 7.7913133 h 4.71 v -1.22 a 1,1 0 0 0 -1,-1 h -3.71 v -4.35 a 1,1 0 0 0 -1,-1 H 38.93 V 16.721313 a 4.23,4.23 0 0 0 4.17,4.31 6,6 0 0 0 3,-0.69 z"
     id="path7" />
  <path
     class="cls-1"
     d="m 50.65,20.741313 h 1.47 V 6.5713133 a 1,1 0 0 0 -1,-1 H 49.67 V 19.761313 a 0.92,0.92 0 0 0 0.98,0.98 z"
     id="path8" />
  <path
     class="cls-1"
     d="m 106.98,3.3313133 a 10.87,10.87 0 0 0 -8,-3.33 10.25,10.25 0 0 0 -10.38,10.5899997 10.19,10.19 0 0 0 10.25,10.54 10.87,10.87 0 0 0 8.23,-3.64 l -1,-1 a 1,1 0 0 0 -1.32,0 8.36,8.36 0 0 1 -5.84,2.36 c -4.31,0 -7.64,-3.63 -7.64,-8.24 0,-4.6099997 3.28,-8.1399997 7.64,-8.1399997 a 8.87,8.87 0 0 1 5.69,2.21 1,1 0 0 0 1.33,-0.1 z"
     id="path9" />
  <path
     class="cls-1"
     d="m 143.48,5.2413133 a 6,6 0 0 0 -5.24,2.85 5.21,5.21 0 0 0 -4.81,-2.85 5.45,5.45 0 0 0 -4.66,2.5 v -1.17 a 1,1 0 0 0 -1,-1 H 126.3 V 20.741313 h 1.47 a 1,1 0 0 0 1,-1 v -7.63 c 0,-2.6499997 1.67,-4.5599997 4,-4.5599997 2.33,0 3.71,1.62 3.71,4.3099997 v 7.9 a 1,1 0 0 0 1,1 h 1.47 v -8.75 c 0,-3.0899997 2,-4.4599997 4,-4.4599997 2.36,0 3.73,1.57 3.73,4.3599997 v 7.85 a 1,1 0 0 0 1,1 h 1.47 v -9.39 C 149.1,7.6013133 146.94,5.2413133 143.48,5.2413133 Z"
     id="path10" />
  <path
     class="cls-1"
     d="m 161.21,5.2413133 a 6.65,6.65 0 0 0 -5.59,3 v -1.67 a 1,1 0 0 0 -1,-1 h -1.47 V 24.411313 a 1,1 0 0 0 1,1 h 1.47 v -7.27 a 6.74,6.74 0 0 0 5.59,2.89 c 3.53,0 7.26,-2.79 7.26,-7.89 0,-5.0999997 -3.78,-7.8999997 -7.26,-7.8999997 z m 4.71,7.8999997 c 0,3.33 -2.11,5.64 -5.1,5.64 a 5.38,5.38 0 0 1 -5.25,-5.64 5.38,5.38 0 0 1 5.25,-5.6499997 c 2.94,0 5.1,2.41 5.1,5.6499997 z"
     id="path11" />
  <path
     class="cls-1"
     d="m 188.86,20.741313 h 1.47 V 6.5713133 a 1,1 0 0 0 -1,-1 h -1.45 V 19.761313 a 1,1 0 0 0 0.98,0.98 z"
     id="path12" />
  <path
     class="cls-1"
     d="m 194.4,23.241313 a 12.34,12.34 0 0 0 7,2.15 c 4.91,0 7.7,-2.69 7.7,-7.4 V 5.5913133 h -1.47 a 1,1 0 0 0 -1,1 v 1.4 a 7.16,7.16 0 1 0 -5.69,11.5699997 6.91,6.91 0 0 0 5.69,-2.89 v 1.37 c 0,3.29 -1.91,5.15 -5.29,5.15 a 9.53,9.53 0 0 1 -5,-1.42 0.9,0.9 0 0 0 -1.32,0.34 z m 12.21,-10.84 a 5.11,5.11 0 0 1 -5.34,5 4.85,4.85 0 0 1 -5,-5 4.79,4.79 0 0 1 5,-4.8999997 5.07,5.07 0 0 1 5.34,4.8999997 z"
     id="path13" />
  <path
     class="cls-1"
     d="m 220.53,5.2413133 a 5.73,5.73 0 0 0 -5,2.6 v -1.27 a 1,1 0 0 0 -1,-1 h -1.47 V 20.741313 h 1.47 a 1,1 0 0 0 1,-1 v -7.7 a 4.23,4.23 0 0 1 4.32,-4.5099997 c 2.5,0 4,1.62 4,4.3599997 v 7.85 a 1,1 0 0 0 1,1 h 1.47 v -9.42 c 0.05,-3.6699997 -2.21,-6.0799997 -5.79,-6.0799997 z"
     id="path14" />
  <path
     class="cls-1"
     d="m 250.05,12.791313 -12.7,8.44 a 2,2 0 0 0 -0.87,1.66 v 2.11 l 15.39,-10.1 a 2.61,2.61 0 0 0 1.13,-2.11 2.48,2.48 0 0 0 -1.13,-2.1 L 236.48,0.6813133 v 2 a 2,2 0 0 0 0.88,1.66 z"
     id="path15" />
  <path
     class="cls-1"
     d="m 242.4,13.491313 a 2.1,2.1 0 0 0 2.26,0 l 1.08,-0.73 -8.05,-5.4499997 a 0.78,0.78 0 0 0 -1.22,0.64 v 1.62 l 4.17,2.7899997 z"
     id="path16" />
  <path
     class="cls-1"
     d="m 172,6.6713133 a 12.75,12.75 0 0 1 5.59,-1.33 c 4.16,0 6.47,2.16 6.47,6.1299997 v 9.27 h -1.42 a 1,1 0 0 1 -1,-1 v -1 a 6.67,6.67 0 0 1 -5.25,2.3 c -2.75,0 -5.69,-1.52 -5.69,-4.8 0,-3.28 2.45,-5 6.52,-5 h 2.55 v 0.94 a 1,1 0 0 1 -1,1 h -1.29 c -2.65,0 -4.22,1.12 -4.22,3 0,1.88 1.86,2.84 3.63,2.84 2.75,0 4.85,-1.67 4.85,-3.87 v -3.58 c 0,-2.5499997 -1.52,-3.9199997 -4.31,-3.9199997 a 10.28,10.28 0 0 0 -3.68,0.73 0.9,0.9 0 0 1 -1.27,-0.59 z"
     id="path17" />
  <path
     class="cls-1"
     d="M 19.48,20.741313 H 20.9 L 12.11,1.2713133 a 1.57,1.57 0 0 0 -1.66,-1 1.47,1.47 0 0 0 -1.62,1 L 0,20.741313 h 1.33 a 2.13,2.13 0 0 0 1.86,-1.18 l 1.86,-4.07 h 7 a 1,1 0 0 0 1,-1 v -1.35 h -7 l 4.43,-9.8099997 7.17,16.1599997 a 2,2 0 0 0 1.83,1.25 z"
     id="path18" />
</svg>
