<?xml version="1.0" encoding="UTF-8" standalone="no"?>
<!-- Created with Inkscape (http://www.inkscape.org/) -->

<svg
   version="1.1"
   id="svg1"
   width="1333.3333"
   height="373.33334"
   viewBox="0 0 1333.3333 373.33334"
   sodipodi:docname="Mailchimp Logo 50-50 Black.eps"
   xmlns:inkscape="http://www.inkscape.org/namespaces/inkscape"
   xmlns:sodipodi="http://sodipodi.sourceforge.net/DTD/sodipodi-0.dtd"
   xmlns="http://www.w3.org/2000/svg"
   xmlns:svg="http://www.w3.org/2000/svg">
  <defs
     id="defs1" />
  <sodipodi:namedview
     id="namedview1"
     pagecolor="#505050"
     bordercolor="#ffffff"
     borderopacity="1"
     inkscape:showpageshadow="0"
     inkscape:pageopacity="0"
     inkscape:pagecheckerboard="1"
     inkscape:deskcolor="#d1d1d1"
     showgrid="false">
    <inkscape:page
       x="0"
       y="0"
       inkscape:label="1"
       id="page1"
       width="1333.3333"
       height="373.33334"
       margin="0"
       bleed="0" />
  </sodipodi:namedview>
  <g
     id="g1"
     inkscape:groupmode="layer"
     inkscape:label="1">
    <g
       id="group-R5">
      <path
         id="path2"
         d="m 1952.27,1471.74 c 19.08,2.28 37.35,2.38 54.14,0 9.72,22.29 11.39,60.72 2.65,102.56 -12.99,62.2 -30.58,99.84 -66.93,93.98 -36.34,-5.86 -37.68,-50.92 -24.69,-113.12 7.31,-34.98 20.33,-64.89 34.83,-83.42"
         style="fill:#000000;fill-opacity:1;fill-rule:nonzero;stroke:none"
         transform="matrix(0.13333333,0,0,-0.13333333,0,373.33333)" />
      <path
         id="path3"
         d="m 1640.26,1422.52 c 26,-11.41 41.98,-18.97 48.24,-12.36 4.02,4.13 2.82,11.99 -3.39,22.13 -12.83,20.95 -39.23,42.2 -67.24,54.13 -57.29,24.65 -125.59,16.46 -178.29,-21.41 -17.4,-12.75 -33.9,-30.41 -31.53,-41.13 0.76,-3.47 3.37,-6.08 9.47,-6.93 14.34,-1.64 64.47,23.7 122.2,27.23 40.77,2.5 74.54,-10.25 100.54,-21.66"
         style="fill:#000000;fill-opacity:1;fill-rule:nonzero;stroke:none"
         transform="matrix(0.13333333,0,0,-0.13333333,0,373.33333)" />
      <path
         id="path4"
         d="m 1587.95,1392.68 c -33.86,-5.35 -52.55,-16.51 -64.54,-26.9 -10.24,-8.95 -16.56,-18.83 -16.51,-25.79 0.03,-3.3 1.46,-5.21 2.59,-6.16 1.55,-1.37 3.38,-2.12 5.57,-2.12 7.65,0 24.79,6.87 24.79,6.87 47.13,16.87 78.22,14.83 109.04,11.32 17.02,-1.91 25.06,-2.97 28.8,2.87 1.1,1.67 2.45,5.3 -0.97,10.82 -7.93,12.87 -42.13,34.63 -88.77,29.09"
         style="fill:#000000;fill-opacity:1;fill-rule:nonzero;stroke:none"
         transform="matrix(0.13333333,0,0,-0.13333333,0,373.33333)" />
      <path
         id="path5"
         d="m 1846.91,1283.11 c 23,-11.3 48.32,-6.86 56.56,9.91 8.24,16.77 -3.72,39.52 -26.72,50.82 -23,11.3 -48.32,6.87 -56.56,-9.9 -8.24,-16.77 3.72,-39.53 26.72,-50.83"
         style="fill:#000000;fill-opacity:1;fill-rule:nonzero;stroke:none"
         transform="matrix(0.13333333,0,0,-0.13333333,0,373.33333)" />
      <path
         id="path6"
         d="m 1994.75,1412.3 c -18.67,0.31 -34.18,-20.2 -34.61,-45.82 -0.43,-25.62 14.36,-46.64 33.04,-46.96 18.69,-0.31 34.18,20.2 34.62,45.81 0.43,25.63 -14.36,46.65 -33.05,46.97"
         style="fill:#000000;fill-opacity:1;fill-rule:nonzero;stroke:none"
         transform="matrix(0.13333333,0,0,-0.13333333,0,373.33333)" />
      <path
         id="path7"
         d="m 720.25,952.68 c -5.164,-1.2 -11.02,-2.571 -17.426,-2.45 -13.746,0.258 -25.383,6.129 -31.914,16.168 -8.508,13.071 -8.019,32.551 1.375,54.872 1.27,3 2.762,6.34 4.383,9.98 14.984,33.62 40.062,89.88 11.91,143.5 -21.191,40.35 -55.75,65.48 -97.308,70.76 -39.891,5.05 -80.965,-9.74 -107.161,-38.65 -41.328,-45.59 -47.785,-107.63 -39.793,-129.55 2.93,-8.03 7.508,-10.25 10.836,-10.71 7.032,-0.95 17.43,4.17 23.946,21.69 0.468,1.26 1.09,3.22 1.863,5.7 2.902,9.27 8.305,26.51 17.16,40.34 10.672,16.68 27.297,28.16 46.813,32.34 19.875,4.25 40.195,0.47 57.203,-10.67 28.949,-18.95 40.097,-54.43 27.742,-88.28 -6.391,-17.5 -16.774,-50.97 -14.481,-78.47 4.629,-55.68 38.864,-78.031 69.629,-80.398 29.911,-1.133 50.813,15.648 56.102,27.929 3.125,7.258 0.488,11.68 -1.207,13.571 -4.645,5.828 -12.285,4.046 -19.672,2.328"
         style="fill:#000000;fill-opacity:1;fill-rule:nonzero;stroke:none"
         transform="matrix(0.13333333,0,0,-0.13333333,0,373.33333)" />
      <path
         id="path8"
         d="m 1510.12,880.578 c 0.01,-0.019 0.03,-0.039 0.04,-0.058 0.02,-0.04 0.03,-0.079 0.05,-0.122 -0.03,0.063 -0.06,0.122 -0.09,0.18 z M 2470.64,869.93 C 2451.54,754.16 2402.33,660.211 2319.63,573.781 2269.3,519.59 2208.18,472.48 2138.25,438.219 c -37.13,-19.508 -76.67,-36.379 -118.44,-50.02 -311.75,-101.82 -630.86,10.121 -733.74,250.512 -8.21,18.07 -15.15,36.988 -20.62,56.777 -43.84,158.41 -6.62,348.462 109.71,468.092 0.01,0.01 -0.02,0.05 -0.01,0.06 7.18,7.62 14.49,16.59 14.49,27.88 0,9.44 -6,19.4 -11.2,26.46 -40.7,59.04 -181.68,159.63 -153.38,354.31 20.32,139.85 142.63,238.35 256.67,232.51 9.63,-0.5 19.28,-1.09 28.9,-1.66 49.41,-2.93 92.53,-9.26 133.21,-10.97 68.08,-2.94 129.32,6.96 201.83,67.38 24.47,20.39 44.07,38.06 77.26,43.68 3.48,0.59 12.17,3.71 29.51,2.89 17.7,-0.94 34.55,-5.81 49.7,-15.89 58.14,-38.68 66.39,-132.38 69.4,-200.92 1.71,-39.12 6.44,-133.79 8.06,-160.96 3.7,-62.14 20.03,-70.9 53.08,-81.78 18.58,-6.11 35.83,-10.68 61.25,-17.81 76.96,-21.61 122.59,-43.53 151.35,-71.69 17.15,-17.59 25.12,-36.29 27.59,-54.12 9.08,-66.2 -51.4,-147.98 -211.48,-222.28 -174.98,-81.221 -387.27,-101.779 -533.94,-85.451 -11.25,1.261 -51.25,5.791 -51.39,5.811 -117.32,15.8 -184.25,-135.831 -113.84,-239.702 45.38,-66.949 168.99,-110.519 292.67,-110.539 283.56,-0.051 501.52,121.051 582.58,225.633 2.43,3.129 2.67,3.469 6.49,9.238 3.99,6.02 0.7,9.32 -4.27,5.93 -66.24,-45.32 -360.45,-225.258 -675.15,-171.129 0,0 -38.24,6.277 -73.15,19.871 -27.74,10.789 -85.79,37.488 -92.85,97.059 253.97,-78.539 413.88,-4.301 413.88,-4.301 2.89,1.219 4.88,4.531 4.55,7.801 -0.41,4.031 -4.01,6.961 -8.03,6.55 0,0 -208.19,-30.82 -404.86,41.18 21.42,69.629 78.38,44.481 164.48,37.539 155.18,-9.25 294.27,13.418 397.05,42.922 89.07,25.566 206.06,75.958 296.92,147.668 30.65,-67.32 41.48,-141.41 41.48,-141.41 0,0 23.72,4.25 43.54,-7.961 18.74,-11.52 32.48,-35.488 23.09,-97.449 z M 1024.27,1972.78 c 97.55,112.73 217.65,210.74 325.22,265.77 3.72,1.9 7.67,-2.14 5.65,-5.79 -8.54,-15.47 -24.99,-48.59 -30.2,-73.72 -0.81,-3.91 3.45,-6.86 6.75,-4.61 66.93,45.62 183.35,94.5 285.47,100.78 4.39,0.27 6.51,-5.35 3.02,-8.03 -15.53,-11.91 -32.51,-28.39 -44.92,-45.07 -2.11,-2.84 -0.12,-6.92 3.41,-6.95 71.71,-0.5 172.8,-25.6 238.68,-62.55 4.46,-2.5 1.28,-11.14 -3.7,-10 -99.69,22.86 -262.87,40.19 -432.37,-1.15 -151.32,-36.91 -266.82,-93.9 -351.09,-155.19 -4.25,-3.09 -9.37,2.53 -5.92,6.51 z M 517.465,1436.66 c -88.324,-17.17 -166.176,-67.23 -213.774,-136.38 -28.457,23.73 -81.464,69.67 -90.824,87.57 -76,144.31 82.942,424.89 193.977,583.34 274.402,391.58 704.176,687.98 903.136,634.2 32.33,-9.15 139.46,-133.35 139.46,-133.35 0,0 -198.88,-110.34 -383.3,-264.15 C 817.637,2016.54 629.918,1738.44 517.465,1436.66 Z M 665.883,774.449 c -13.363,-2.277 -27.008,-3.179 -40.754,-2.859 -132.902,3.57 -276.453,123.211 -290.715,265.1 -15.769,156.83 64.363,277.54 206.25,306.15 16.961,3.42 37.457,5.39 59.563,4.24 79.492,-4.35 196.64,-65.4 223.406,-238.57 C 847.332,955.141 809.684,798.969 665.883,774.449 Z M 2466.15,1052.16 c -1.14,4.02 -8.56,31.14 -18.75,63.81 -10.19,32.66 -20.74,55.66 -20.74,55.66 40.88,61.2 41.6,115.93 36.17,146.91 -5.8,38.43 -21.79,71.17 -54.04,105.01 -32.23,33.85 -98.17,68.51 -190.83,94.52 -10.6,2.98 -45.55,12.57 -48.62,13.5 -0.24,2.01 -2.56,114.63 -4.67,162.97 -1.53,34.95 -4.53,89.5 -21.46,143.25 -20.18,72.73 -55.33,136.39 -99.2,177.1 121.08,125.52 196.66,263.78 196.48,382.4 -0.34,228.1 -280.48,297.13 -625.71,154.17 -0.37,-0.15 -72.63,-30.79 -73.15,-31.05 -0.32,0.32 -132.24,129.75 -134.22,131.48 C 1013.8,2995.2 -216.852,1627.3 176.609,1295.07 l 85.993,-72.84 c -22.309,-57.78 -31.071,-123.98 -23.911,-195.16 9.188,-91.441 56.356,-179.09 132.793,-246.808 72.571,-64.293 167.977,-104.981 260.571,-104.91 153.113,-352.84 502.955,-569.301 913.155,-581.4926 440.01,-13.0703 809.37,193.4026 964.14,564.2886 10.12,26.032 53.08,143.313 53.08,246.84 0,104.052 -58.82,147.172 -96.28,147.172"
         style="fill:#000000;fill-opacity:1;fill-rule:nonzero;stroke:none"
         transform="matrix(0.13333333,0,0,-0.13333333,0,373.33333)" />
      <path
         id="path9"
         d="m 3976.15,1257.86 c -206.99,0 -210.63,-225.96 -259.56,-225.96 -10.21,0 -18.32,9.04 -18.32,21.37 0,16.52 4.29,30.85 4.29,57.5 0,81.11 -57.07,147.09 -176.82,147.09 -101.62,0 -175.97,-50.9 -221.38,-145.04 -23.02,-47.73 -21.05,-80.92 -44.28,-80.92 -8.6,0 -15.27,8.15 -15.27,19.85 0,34.55 30.54,66.22 30.54,140.46 0,19.32 -1.52,35.62 -4.58,48.86 H 3073.81 V 477.672 H 3341 v 414.199 c 0,81.649 34.95,133.909 94.67,133.909 39.56,0 74.81,-34.561 74.81,-97.901 V 477.672 h 267.19 v 414.199 c 0,91.66 42.44,133.909 94.66,133.909 43.77,0 74.81,-40.499 74.81,-97.901 V 477.672 h 264.14 v 468.726 c 0,204.842 -81.33,311.462 -235.13,311.462"
         style="fill:#000000;fill-opacity:1;fill-rule:nonzero;stroke:none"
         transform="matrix(0.13333333,0,0,-0.13333333,0,373.33333)" />
      <path
         id="path10"
         d="m 5539.54,477.672 h 264.14 V 1454.82 H 5539.54 V 477.672"
         style="fill:#000000;fill-opacity:1;fill-rule:nonzero;stroke:none"
         transform="matrix(0.13333333,0,0,-0.13333333,0,373.33333)" />
      <path
         id="path11"
         d="m 5890.7,868.531 c 0,-259.73 168.05,-409.179 386.28,-409.179 125.12,0 220.73,49.488 279.4,97.718 v 251.91 c -59.36,-40.621 -150.75,-87.019 -248.87,-87.019 -122.36,0 -186.27,50.828 -186.27,138.93 0,84.031 73.66,137.41 181.69,137.41 97.82,0 187.53,-38.922 253.45,-83.973 v 267.192 c -55.77,41.52 -154.28,77.87 -279.4,77.87 -234.16,0 -386.28,-146.45 -386.28,-390.859"
         style="fill:#000000;fill-opacity:1;fill-rule:nonzero;stroke:none"
         transform="matrix(0.13333333,0,0,-0.13333333,0,373.33333)" />
      <path
         id="path12"
         d="m 7138.07,1256.33 c -107.43,0 -169.63,-49.76 -215.26,-141.99 -20.13,-40.66 -21.64,-80.92 -44.29,-80.92 -8.54,0 -15.26,7.88 -15.26,19.85 0,42.29 50.38,105.43 50.38,291.62 0,46.8 -4.58,82.95 -13.74,108.4 H 6669.35 V 477.672 h 267.19 V 888.52 c 0,76.96 40.48,135.74 102.3,135.74 46.02,0 77.86,-37.401 77.86,-97.908 v -448.68 h 267.19 v 477.879 c 0,199.439 -86.97,300.779 -245.82,300.779"
         style="fill:#000000;fill-opacity:1;fill-rule:nonzero;stroke:none"
         transform="matrix(0.13333333,0,0,-0.13333333,0,373.33333)" />
      <path
         id="path13"
         d="m 9518.31,637.98 c -53.94,0 -112.99,55.899 -112.99,196.961 0,122.86 48.28,195.429 112.99,195.429 74.43,0 116.03,-71.679 116.03,-195.429 0,-137.472 -47.89,-196.961 -116.03,-196.961 z m 71.76,621.41 c -118.06,0 -178.41,-67.27 -212.14,-129.49 -26.68,-49.23 -30.56,-96.48 -53.52,-96.48 -11.22,0 -16.8,6.61 -16.8,19.85 0,23.38 30.53,63.07 30.53,128.25 0,26.45 -2.05,46.31 -6.1,59.55 H 9132.03 V 282.238 h 268.71 v 301.153 c 34.13,-72.84 105.49,-120.993 203.06,-120.993 175.97,0 296.2,145.184 296.2,398.493 0,233.699 -111.42,398.499 -309.93,398.499"
         style="fill:#000000;fill-opacity:1;fill-rule:nonzero;stroke:none"
         transform="matrix(0.13333333,0,0,-0.13333333,0,373.33333)" />
      <path
         id="path14"
         d="m 4598.73,649.461 c -49.59,0 -76.24,21.687 -76.24,59.461 0,49.25 46.25,86.918 166.2,86.918 26.38,0 50.35,-0.899 71.99,-2.68 -10.59,-70.262 -71.84,-143.699 -161.95,-143.699 z m 89.96,609.929 c -138.04,0 -264.38,-34.13 -352.23,-77.77 v -221.1 c 102.23,55.21 207,96.07 298.86,96.07 98.41,0 140.06,-51.9 134.23,-120.192 -39.74,4.122 -83.8,5.821 -137.28,5.821 -208.98,0 -340.03,-81.578 -340.03,-259.219 0,-145.898 113.59,-221.102 237.87,-221.102 121.22,0 204.66,57.961 253,145.383 27.53,49.778 25.16,80.301 43.13,80.301 8.78,0 14.93,-6.281 14.93,-16.07 0,-31.871 -9.14,-50.524 -9.14,-93.723 0,-40.41 5.29,-74.437 13.72,-99.109 h 192.13 v 408.652 c 0,232.138 -106.17,372.058 -349.19,372.058"
         style="fill:#000000;fill-opacity:1;fill-rule:nonzero;stroke:none"
         transform="matrix(0.13333333,0,0,-0.13333333,0,373.33333)" />
      <path
         id="path15"
         d="m 5641.26,1960.56 v 428.3 h -183.9 v -406.37 c 0,-100.67 -67.38,-168.05 -155.92,-168.05 -88.78,0 -155.88,67.38 -155.88,168.05 v 406.37 h -183.62 l 1.03,-428.3 c 0,-186.54 149.3,-322.88 339.03,-322.88 189.68,0 339.26,136.07 339.26,322.88"
         style="fill:#000000;fill-opacity:1;fill-rule:nonzero;stroke:none"
         transform="matrix(0.13333333,0,0,-0.13333333,0,373.33333)" />
      <path
         id="path16"
         d="m 6351.49,1652.48 h 183.62 v 564.38 h 219.05 v 172 h -622.01 v -172 h 219.34 v -564.38"
         style="fill:#000000;fill-opacity:1;fill-rule:nonzero;stroke:none"
         transform="matrix(0.13333333,0,0,-0.13333333,0,373.33333)" />
      <path
         id="path17"
         d="m 6013.53,2388.6 h -183.62 v -736.39 h 183.62 v 736.39"
         style="fill:#000000;fill-opacity:1;fill-rule:nonzero;stroke:none"
         transform="matrix(0.13333333,0,0,-0.13333333,0,373.33333)" />
      <path
         id="path18"
         d="m 4440.37,1652.48 h 183.62 v 564.38 h 219.05 v 172 h -622 v -172 h 219.33 v -564.38"
         style="fill:#000000;fill-opacity:1;fill-rule:nonzero;stroke:none"
         transform="matrix(0.13333333,0,0,-0.13333333,0,373.33333)" />
      <path
         id="path19"
         d="M 3257.43,2020.27 V 2388.6 H 3073.8 v -736.39 h 183.63 v 368.06"
         style="fill:#000000;fill-opacity:1;fill-rule:nonzero;stroke:none"
         transform="matrix(0.13333333,0,0,-0.13333333,0,373.33333)" />
      <path
         id="path20"
         d="m 3629.46,2058.85 c 0,100.67 67.37,168.04 155.89,168.04 88.51,0 155.89,-67.37 155.89,-168.04 v -406.37 h 183.63 l -0.52,428.3 c 0,186.54 -149.56,322.88 -339.27,322.88 -189.71,0 -339.26,-136.07 -339.26,-322.88 v -428.3 h 183.64 v 406.37"
         style="fill:#000000;fill-opacity:1;fill-rule:nonzero;stroke:none"
         transform="matrix(0.13333333,0,0,-0.13333333,0,373.33333)" />
      <path
         id="path21"
         d="m 8785.46,1257.86 c -206.98,0 -210.63,-225.96 -259.56,-225.96 -10.21,0 -18.31,9.04 -18.31,21.37 0,16.52 4.28,30.85 4.28,57.5 0,81.11 -57.07,147.09 -176.81,147.09 -101.63,0 -175.97,-50.9 -221.39,-145.04 -23.01,-47.73 -21.04,-80.92 -44.28,-80.92 -8.6,0 -15.26,8.15 -15.26,19.85 0,34.55 30.54,66.22 30.54,140.46 0,19.32 -1.53,35.62 -4.58,48.86 H 7883.13 V 477.672 h 267.19 v 414.199 c 0,81.649 34.95,133.909 94.66,133.909 39.57,0 74.81,-34.561 74.81,-97.901 V 477.672 h 267.19 v 414.199 c 0,91.66 42.44,133.909 94.67,133.909 43.76,0 74.81,-40.499 74.81,-97.901 V 477.672 h 264.13 v 468.726 c 0,204.842 -81.32,311.462 -235.13,311.462"
         style="fill:#000000;fill-opacity:1;fill-rule:nonzero;stroke:none"
         transform="matrix(0.13333333,0,0,-0.13333333,0,373.33333)" />
      <path
         id="path22"
         d="m 7629.69,1187.63 c -55.99,0 -100.27,8.13 -132.83,24.43 V 477.672 H 7761 v 734.388 c -34.28,-15.05 -75.12,-24.43 -131.31,-24.43"
         style="fill:#000000;fill-opacity:1;fill-rule:nonzero;stroke:none"
         transform="matrix(0.13333333,0,0,-0.13333333,0,373.33333)" />
      <path
         id="path23"
         d="m 7628.16,1459.4 c -109.17,0 -166.42,-48.29 -166.42,-103.82 0,-59.79 67.67,-103.83 166.42,-103.83 98.75,0 166.42,44.04 166.42,103.83 0,55.53 -57.25,103.82 -166.42,103.82"
         style="fill:#000000;fill-opacity:1;fill-rule:nonzero;stroke:none"
         transform="matrix(0.13333333,0,0,-0.13333333,0,373.33333)" />
      <path
         id="path24"
         d="m 5289.92,1187.63 c -55.98,0 -100.27,8.13 -132.82,24.43 V 477.672 h 264.13 v 734.388 c -34.28,-15.05 -75.12,-24.43 -131.31,-24.43"
         style="fill:#000000;fill-opacity:1;fill-rule:nonzero;stroke:none"
         transform="matrix(0.13333333,0,0,-0.13333333,0,373.33333)" />
      <path
         id="path25"
         d="m 5288.4,1459.4 c -109.17,0 -166.42,-48.29 -166.42,-103.82 0,-59.79 67.66,-103.83 166.42,-103.83 98.75,0 166.42,44.04 166.42,103.83 0,55.53 -57.25,103.82 -166.42,103.82"
         style="fill:#000000;fill-opacity:1;fill-rule:nonzero;stroke:none"
         transform="matrix(0.13333333,0,0,-0.13333333,0,373.33333)" />
    </g>
  </g>
</svg>
