<svg width="208" height="50" viewBox="0 0 208 50" fill="none" xmlns="http://www.w3.org/2000/svg">
<path d="M38.484 22.6969H35.5147L30.557 15.246V22.6969H27.5942V10.6144H30.557L35.5147 18.1042V10.6079H38.4775V22.6969H38.484Z" fill="black"/>
<path d="M49.3675 18.5978H42.6569C42.7027 19.1954 42.8989 19.6501 43.2391 19.9684C43.5792 20.2867 43.9977 20.4426 44.4948 20.4426C45.2339 20.4426 45.7506 20.1308 46.0384 19.5137H49.1909C49.0274 20.1438 48.7396 20.7154 48.3145 21.2156C47.8893 21.7223 47.3661 22.1186 46.7317 22.4044C46.0972 22.6902 45.3843 22.8331 44.5995 22.8331C43.6511 22.8331 42.8074 22.6317 42.0683 22.229C41.3292 21.8262 40.7537 21.2546 40.3351 20.5076C39.9165 19.7605 39.7137 18.8901 39.7137 17.8897C39.7137 16.8893 39.9165 16.0189 40.3285 15.2718C40.7406 14.5248 41.3162 13.9532 42.0552 13.5504C42.7943 13.1477 43.6446 12.9463 44.606 12.9463C45.5413 12.9463 46.3719 13.1412 47.1045 13.5309C47.8305 13.9207 48.3995 14.4793 48.8115 15.2004C49.2236 15.9214 49.4263 16.7659 49.4263 17.7338C49.4198 18.0131 49.4002 18.2989 49.3675 18.5978ZM46.385 16.9608C46.385 16.4541 46.215 16.0513 45.8683 15.759C45.5217 15.4602 45.09 15.3108 44.5668 15.3108C44.0697 15.3108 43.6511 15.4537 43.311 15.7395C42.9709 16.0254 42.7616 16.4346 42.6766 16.9608H46.385Z" fill="black"/>
<path d="M64.5347 13.0891L61.9185 22.6966H58.6418L57.1178 16.467L55.5416 22.6966H52.2844L49.6486 13.0891H52.6115L53.9784 19.9553L55.607 13.0891H58.7464L60.3946 19.9228L61.7485 13.0891H64.5347Z" fill="black"/>
<path d="M66.922 22.4046C66.2614 22.1187 65.7447 21.7225 65.3654 21.2288C64.986 20.7351 64.7702 20.17 64.7244 19.5529H67.6546C67.6873 19.8841 67.8442 20.157 68.1189 20.3648C68.3936 20.5727 68.7403 20.6766 69.1392 20.6766C69.5121 20.6766 69.7933 20.6052 69.996 20.4623C70.1988 20.3194 70.2969 20.131 70.2969 19.9036C70.2969 19.6308 70.153 19.4229 69.8652 19.293C69.5775 19.1631 69.1065 19.0137 68.459 18.8513C67.7657 18.6889 67.1902 18.52 66.7258 18.3446C66.2614 18.1692 65.8625 17.8834 65.5289 17.5001C65.1953 17.1169 65.0253 16.5972 65.0253 15.9411C65.0253 15.389 65.1757 14.8888 65.4831 14.4341C65.7905 13.9793 66.2418 13.6221 66.837 13.3557C67.4322 13.0894 68.1386 12.9595 68.9626 12.9595C70.1726 12.9595 71.1341 13.2583 71.8339 13.8559C72.5337 14.4535 72.9327 15.246 73.0374 16.2334H70.2969C70.2511 15.9021 70.1007 15.6358 69.8522 15.4409C69.6036 15.246 69.2766 15.1486 68.8711 15.1486C68.5244 15.1486 68.2563 15.2136 68.0731 15.3435C67.89 15.4734 67.7984 15.6553 67.7984 15.8826C67.7984 16.1555 67.9423 16.3633 68.2432 16.4998C68.5375 16.6362 68.9953 16.7726 69.6232 16.9155C70.3427 17.0974 70.9248 17.2793 71.3761 17.4547C71.8274 17.6301 72.2198 17.9224 72.5664 18.3186C72.9066 18.7149 73.0832 19.2475 73.0962 19.9101C73.0962 20.4753 72.9393 20.9755 72.6188 21.4172C72.2983 21.8589 71.847 22.2032 71.2518 22.4565C70.6566 22.7099 69.9699 22.8333 69.1785 22.8333C68.3348 22.8333 67.5826 22.6904 66.922 22.4046Z" fill="black"/>
<path d="M6.3181 37.7024L3.74115 33.0578H3.01516V37.7024H0V25.3926H5.06887C6.0434 25.3926 6.88058 25.5615 7.56733 25.8993C8.25408 26.237 8.77077 26.7048 9.11088 27.2959C9.45098 27.887 9.62103 28.5431 9.62103 29.2707C9.62103 30.0891 9.38558 30.8232 8.9212 31.4663C8.45683 32.1094 7.77008 32.5641 6.86095 32.8369L9.71914 37.7154H6.3181V37.7024ZM3.0217 30.9336H4.89227C5.44821 30.9336 5.86026 30.7972 6.13496 30.5309C6.40966 30.2645 6.54701 29.8813 6.54701 29.3941C6.54701 28.9264 6.40966 28.5561 6.13496 28.2898C5.86026 28.0234 5.44167 27.887 4.89227 27.887H3.0217V30.9336Z" fill="black"/>
<path d="M19.726 33.61H13.0221C13.0678 34.2076 13.2641 34.6623 13.6042 34.9806C13.9443 35.2989 14.3628 35.4548 14.8599 35.4548C15.599 35.4548 16.1157 35.143 16.4035 34.5259H19.556C19.3925 35.156 19.1047 35.7276 18.6796 36.2278C18.2544 36.7345 17.7312 37.1308 17.0968 37.4166C16.4623 37.7024 15.7494 37.8453 14.9646 37.8453C14.0162 37.8453 13.1725 37.6439 12.4334 37.2412C11.6943 36.8384 11.1188 36.2668 10.7002 35.5198C10.2816 34.7727 10.0788 33.9023 10.0788 32.9019C10.0788 31.9015 10.2816 31.0311 10.6936 30.284C11.1057 29.537 11.6813 28.9654 12.4203 28.5626C13.1594 28.1599 14.0097 27.9585 14.9711 27.9585C15.9064 27.9585 16.737 28.1534 17.4696 28.5431C18.1956 28.9329 18.7646 29.4915 19.1766 30.2126C19.5887 30.9336 19.7914 31.7781 19.7914 32.746C19.7784 33.0253 19.7653 33.3111 19.726 33.61ZM16.7436 31.973C16.7436 31.4663 16.5735 31.0636 16.2269 30.7712C15.8802 30.4724 15.4486 30.323 14.9253 30.323C14.4283 30.323 14.0097 30.4659 13.6696 30.7518C13.3295 31.0376 13.1202 31.4468 13.0351 31.973H16.7436Z" fill="black"/>
<path d="M25.1023 34.9479L27.2017 28.0947H30.3543L26.9205 37.7022H23.2644L19.8306 28.0947H23.0028L25.1023 34.9479Z" fill="black"/>
<path d="M39.9035 33.61H33.1929C33.2387 34.2076 33.4349 34.6623 33.775 34.9806C34.1152 35.2989 34.5337 35.4548 35.0308 35.4548C35.7699 35.4548 36.2866 35.143 36.5744 34.5259H39.7269C39.5634 35.156 39.2756 35.7276 38.8505 36.2278C38.4253 36.7345 37.9021 37.1308 37.2677 37.4166C36.6332 37.7024 35.9203 37.8453 35.1355 37.8453C34.1871 37.8453 33.3434 37.6439 32.6043 37.2412C31.8652 36.8384 31.2897 36.2668 30.8711 35.5198C30.4525 34.7727 30.2497 33.9023 30.2497 32.9019C30.2497 31.9015 30.4525 31.0311 30.8645 30.284C31.2766 29.537 31.8521 28.9654 32.5912 28.5626C33.3303 28.1599 34.1806 27.9585 35.142 27.9585C36.0773 27.9585 36.9079 28.1534 37.6405 28.5431C38.3665 28.9329 38.9355 29.4915 39.3475 30.2126C39.7596 30.9336 39.9623 31.7781 39.9623 32.746C39.9558 33.0253 39.9362 33.3111 39.9035 33.61ZM36.921 31.973C36.921 31.4663 36.751 31.0636 36.4043 30.7712C36.0577 30.4724 35.626 30.323 35.1028 30.323C34.6057 30.323 34.1871 30.4659 33.847 30.7518C33.5069 31.0376 33.2976 31.4468 33.2126 31.973H36.921Z" fill="black"/>
<path d="M49.7011 29.0886C50.3748 29.8162 50.7149 30.8166 50.7149 32.0898V37.7023H47.7716V32.486C47.7716 31.8429 47.6016 31.3427 47.268 30.9854C46.9345 30.6282 46.4832 30.4528 45.9142 30.4528C45.3451 30.4528 44.9004 30.6282 44.5603 30.9854C44.2267 31.3427 44.0567 31.8429 44.0567 32.486V37.7023H41.0938V28.1012H44.0567V29.3745C44.3575 28.9522 44.763 28.6144 45.2732 28.3676C45.7833 28.1207 46.3524 27.9973 46.9868 27.9973C48.1248 27.9973 49.0274 28.3611 49.7011 29.0886Z" fill="black"/>
<path d="M61.9121 28.1013V37.7088H58.9492V36.4031C58.6484 36.8254 58.2429 37.1697 57.7262 37.4295C57.2095 37.6893 56.6404 37.8192 56.0191 37.8192C55.28 37.8192 54.626 37.6568 54.0635 37.3256C53.4945 37.0008 53.0563 36.5266 52.7489 35.9029C52.4349 35.2858 52.2845 34.5518 52.2845 33.7138V28.1013H55.2277V33.3176C55.2277 33.9607 55.3978 34.4608 55.7313 34.8181C56.0649 35.1754 56.5162 35.3508 57.0852 35.3508C57.6608 35.3508 58.1186 35.1754 58.4521 34.8181C58.7857 34.4608 58.9558 33.9607 58.9558 33.3176V28.1013H61.9121Z" fill="black"/>
<path d="M73.0439 33.61H66.3399C66.3857 34.2076 66.5819 34.6623 66.922 34.9806C67.2622 35.2989 67.6807 35.4548 68.1778 35.4548C68.9169 35.4548 69.4336 35.143 69.7214 34.5259H72.8739C72.7104 35.156 72.4226 35.7276 71.9974 36.2278C71.5723 36.7345 71.0491 37.1308 70.4147 37.4166C69.7802 37.7024 69.0673 37.8453 68.2825 37.8453C67.3341 37.8453 66.4904 37.6439 65.7513 37.2412C65.0122 36.8384 64.4367 36.2668 64.0181 35.5198C63.5995 34.7727 63.3967 33.9023 63.3967 32.9019C63.3967 31.9015 63.5995 31.0311 64.0115 30.284C64.4236 29.537 64.9991 28.9654 65.7382 28.5626C66.4773 28.1599 67.3276 27.9585 68.289 27.9585C69.2243 27.9585 70.0549 28.1534 70.7875 28.5431C71.5135 28.9329 72.0825 29.4915 72.4945 30.2126C72.9066 30.9336 73.1093 31.7781 73.1093 32.746C73.0962 33.0253 73.0766 33.3111 73.0439 33.61ZM70.0615 31.973C70.0615 31.4663 69.8914 31.0636 69.5448 30.7712C69.1981 30.4724 68.7665 30.323 68.2432 30.323C67.7461 30.323 67.3275 30.4659 66.9874 30.7518C66.6473 31.0376 66.438 31.4468 66.353 31.973H70.0615Z" fill="black"/>
<path d="M76.2356 19.4813L76.2814 49.3562L208 30.1801V0L76.2356 19.4813Z" fill="#F5FF75"/>
<path d="M86.0527 14.6224V21.4432H95.2748V25.7695H86.0527V32.98H96.4521V37.4232H80.5587V10.1792H96.4521V14.6224H86.0527Z" fill="black"/>
<path d="M118.075 17.955C119.671 19.579 120.469 21.8461 120.469 24.7563V37.4234H114.975V25.4968C114.975 23.7819 114.543 22.4632 113.68 21.5408C112.816 20.6184 111.639 20.1571 110.148 20.1571C108.63 20.1571 107.433 20.6184 106.557 21.5408C105.681 22.4632 105.242 23.7819 105.242 25.4968V37.4234H99.7484V15.8308H105.242V18.5202C105.975 17.5848 106.91 16.8507 108.048 16.318C109.186 15.7854 110.436 15.519 111.796 15.519C114.386 15.519 116.479 16.331 118.075 17.955Z" fill="black"/>
<path d="M154.924 15.8308V37.4233H149.43V15.8308H154.924Z" fill="black"/>
<path d="M177.05 17.955C178.646 19.579 179.444 21.8461 179.444 24.7563V37.4234H173.95V25.4968C173.95 23.7819 173.518 22.4632 172.655 21.5408C171.792 20.6184 170.614 20.1571 169.123 20.1571C167.606 20.1571 166.409 20.6184 165.533 21.5408C164.656 22.4632 164.218 23.7819 164.218 25.4968V37.4234H158.724V15.8308H164.218V18.5202C164.95 17.5848 165.886 16.8507 167.024 16.318C168.162 15.7854 169.411 15.519 170.771 15.519C173.361 15.519 175.454 16.331 177.05 17.955Z" fill="black"/>
<path d="M152.177 14.2717C153.972 14.2717 155.428 12.8262 155.428 11.0432C155.428 9.26014 153.972 7.8147 152.177 7.8147C150.382 7.8147 148.926 9.26014 148.926 11.0432C148.926 12.8262 150.382 14.2717 152.177 14.2717Z" fill="black"/>
<path d="M196.364 31.8822C195.501 32.7917 194.343 33.2529 192.865 33.2529C191.452 33.2529 190.262 32.8111 189.294 31.9277C188.326 31.0443 187.777 29.823 187.646 28.264H203.539C203.644 27.6404 203.696 26.9388 203.696 26.1593C203.696 24.0546 203.245 22.1903 202.342 20.5663C201.44 18.9423 200.171 17.6886 198.536 16.8052C196.901 15.9217 195.05 15.48 192.983 15.48C190.838 15.48 188.941 15.9347 187.293 16.8441C185.645 17.7536 184.363 19.0527 183.447 20.7417C182.531 22.4306 182.073 24.3924 182.073 26.627C182.073 28.8356 182.538 30.7844 183.467 32.4734C184.395 34.1623 185.69 35.468 187.352 36.3904C189.013 37.3128 190.89 37.7741 192.983 37.7741C195.573 37.7741 197.757 37.105 199.537 35.7668C201.237 34.4871 202.408 32.8631 203.055 30.9013L196.364 31.8822ZM189.392 21.1899C190.321 20.3714 191.466 19.9622 192.826 19.9622C194.265 19.9622 195.481 20.3844 196.476 21.2289C197.47 22.0734 197.98 23.1972 198.006 24.6003H187.685C187.894 23.1452 188.463 22.0084 189.392 21.1899Z" fill="black"/>
<path d="M139.966 15.8308V18.9098C139.26 17.8965 138.292 17.0715 137.062 16.4349C135.832 15.7983 134.406 15.48 132.784 15.48C130.927 15.48 129.246 15.9347 127.742 16.8441C126.237 17.7536 125.047 19.0527 124.171 20.7417C123.294 22.4306 122.856 24.3664 122.856 26.5491C122.856 28.7577 123.294 30.713 124.171 32.4149C125.047 34.1168 126.244 35.4355 127.761 36.3709C129.279 37.3063 130.953 37.7741 132.784 37.7741C134.38 37.7741 135.8 37.4363 137.042 36.7607C138.285 36.0851 139.26 35.2406 139.966 34.2273V37.5792C139.966 39.502 139.469 40.9376 138.475 41.886C137.481 42.8344 136.185 43.3086 134.59 43.3086C133.229 43.3086 132.072 43.0163 131.117 42.4316C130.692 42.1718 130.345 41.8665 130.057 41.5287L124.354 42.3602C124.91 43.7763 125.838 44.9651 127.153 45.92C129.128 47.3491 131.659 48.0636 134.747 48.0636C137.049 48.0636 139.011 47.6024 140.633 46.68C142.255 45.7576 143.472 44.5103 144.283 42.9383C145.094 41.3663 145.499 39.5799 145.499 37.5792V15.8308H139.966ZM139.181 30.0374C138.658 30.9858 137.951 31.7133 137.062 32.22C136.172 32.7267 135.218 32.98 134.197 32.98C133.203 32.98 132.268 32.7202 131.391 32.2005C130.515 31.6809 129.809 30.9338 129.272 29.9594C128.736 28.985 128.468 27.8483 128.468 26.5491C128.468 25.2499 128.736 24.1261 129.272 23.1777C129.809 22.2293 130.508 21.5082 131.372 21.0145C132.235 20.5208 133.177 20.274 134.197 20.274C135.218 20.274 136.172 20.5273 137.062 21.034C137.951 21.5407 138.658 22.2682 139.181 23.2166C139.704 24.1651 139.966 25.3018 139.966 26.627C139.966 27.9522 139.704 29.089 139.181 30.0374Z" fill="black"/>
</svg>
