<svg width="208" height="50" viewBox="76 0 134 50" fill="none" xmlns="http://www.w3.org/2000/svg">
<path d="M76.2356 19.4813L76.2814 49.3562L208 30.1801V0L76.2356 19.4813Z" fill="#157CB2"/>
<path d="M86.0528 14.6223V21.443H95.2749V25.7693H86.0528V32.9798H96.4522V37.4231H80.5588V10.1791H96.4522V14.6223H86.0528Z" fill="white"/>
<path d="M118.075 17.9549C119.671 19.5789 120.469 21.846 120.469 24.7562V37.4232H114.975V25.4967C114.975 23.7818 114.543 22.4631 113.68 21.5407C112.816 20.6182 111.639 20.157 110.148 20.157C108.63 20.157 107.434 20.6182 106.557 21.5407C105.681 22.4631 105.243 23.7818 105.243 25.4967V37.4232H99.7485V15.8307H105.243V18.52C105.975 17.5846 106.91 16.8506 108.048 16.3179C109.186 15.7853 110.436 15.5189 111.796 15.5189C114.386 15.5189 116.479 16.3309 118.075 17.9549Z" fill="white"/>
<path d="M154.924 15.8306V37.4231H149.43V15.8306H154.924Z" fill="white"/>
<path d="M177.051 17.9549C178.646 19.5789 179.444 21.846 179.444 24.7562V37.4232H173.95V25.4967C173.95 23.7818 173.519 22.4631 172.655 21.5407C171.792 20.6182 170.615 20.157 169.123 20.157C167.606 20.157 166.409 20.6182 165.533 21.5407C164.656 22.4631 164.218 23.7818 164.218 25.4967V37.4232H158.724V15.8307H164.218V18.52C164.951 17.5846 165.886 16.8506 167.024 16.3179C168.162 15.7853 169.411 15.5189 170.772 15.5189C173.362 15.5189 175.455 16.3309 177.051 17.9549Z" fill="white"/>
<path d="M152.177 14.2717C153.972 14.2717 155.428 12.8262 155.428 11.0432C155.428 9.26014 153.972 7.8147 152.177 7.8147C150.382 7.8147 148.926 9.26014 148.926 11.0432C148.926 12.8262 150.382 14.2717 152.177 14.2717Z" fill="white"/>
<path d="M196.364 31.8821C195.501 32.7915 194.343 33.2528 192.865 33.2528C191.453 33.2528 190.262 32.811 189.294 31.9276C188.326 31.0441 187.777 29.8229 187.646 28.2639H203.539C203.644 27.6403 203.696 26.9387 203.696 26.1592C203.696 24.0545 203.245 22.1902 202.342 20.5662C201.44 18.9422 200.171 17.6885 198.536 16.805C196.901 15.9216 195.05 15.4799 192.983 15.4799C190.838 15.4799 188.941 15.9346 187.293 16.844C185.645 17.7534 184.363 19.0526 183.447 20.7416C182.531 22.4305 182.073 24.3923 182.073 26.6269C182.073 28.8355 182.538 30.7843 183.467 32.4732C184.395 34.1622 185.69 35.4679 187.352 36.3903C189.013 37.3127 190.89 37.7739 192.983 37.7739C195.573 37.7739 197.758 37.1048 199.537 35.7667C201.237 34.487 202.408 32.863 203.055 30.9012L196.364 31.8821ZM189.392 21.1898C190.321 20.3713 191.466 19.9621 192.826 19.9621C194.265 19.9621 195.481 20.3843 196.476 21.2288C197.47 22.0732 197.98 23.197 198.006 24.6002H187.685C187.895 23.1451 188.464 22.0083 189.392 21.1898Z" fill="white"/>
<path d="M139.966 15.8306V18.9097C139.259 17.8964 138.291 17.0714 137.062 16.4348C135.832 15.7982 134.406 15.4799 132.784 15.4799C130.927 15.4799 129.246 15.9346 127.742 16.844C126.237 17.7534 125.047 19.0526 124.171 20.7416C123.294 22.4305 122.856 24.3663 122.856 26.5489C122.856 28.7576 123.294 30.7128 124.171 32.4148C125.047 34.1167 126.244 35.4354 127.761 36.3708C129.279 37.3062 130.953 37.7739 132.784 37.7739C134.38 37.7739 135.8 37.4361 137.042 36.7606C138.285 36.085 139.259 35.2405 139.966 34.2271V37.579C139.966 39.5018 139.469 40.9374 138.475 41.8859C137.48 42.8343 136.185 43.3085 134.59 43.3085C133.229 43.3085 132.071 43.0162 131.117 42.4315C130.691 42.1717 130.345 41.8664 130.057 41.5286L124.354 42.3601C124.91 43.7762 125.838 44.9649 127.153 45.9198C129.128 47.3489 131.659 48.0635 134.747 48.0635C137.049 48.0635 139.011 47.6023 140.633 46.6799C142.255 45.7574 143.472 44.5102 144.283 42.9382C145.094 41.3662 145.499 39.5798 145.499 37.579V15.8306H139.966ZM139.181 30.0373C138.658 30.9857 137.951 31.7132 137.062 32.2199C136.172 32.7266 135.217 32.9799 134.197 32.9799C133.203 32.9799 132.268 32.7201 131.391 32.2004C130.515 31.6807 129.808 30.9337 129.272 29.9593C128.736 28.9849 128.468 27.8481 128.468 26.5489C128.468 25.2498 128.736 24.126 129.272 23.1775C129.808 22.2291 130.508 21.5081 131.372 21.0144C132.235 20.5207 133.177 20.2739 134.197 20.2739C135.217 20.2739 136.172 20.5272 137.062 21.0339C137.951 21.5406 138.658 22.2681 139.181 23.2165C139.704 24.1649 139.966 25.3017 139.966 26.6269C139.966 27.9521 139.704 29.0889 139.181 30.0373Z" fill="white"/>
</svg>
