<svg width="208" height="50" viewBox="0 0 208 50" fill="none" xmlns="http://www.w3.org/2000/svg">
<path d="M38.4841 22.6969H35.5148L30.5571 15.246V22.6969H27.5942V10.6144H30.5571L35.5148 18.1042V10.6079H38.4776V22.6969H38.4841Z" fill="white"/>
<path d="M49.3676 18.5978H42.6571C42.7029 19.1954 42.8991 19.6501 43.2392 19.9684C43.5793 20.2867 43.9979 20.4426 44.495 20.4426C45.234 20.4426 45.7507 20.1308 46.0385 19.5137H49.191C49.0275 20.1438 48.7397 20.7154 48.3146 21.2156C47.8895 21.7223 47.3662 22.1186 46.7318 22.4044C46.0974 22.6902 45.3845 22.8331 44.5996 22.8331C43.6512 22.8331 42.8075 22.6317 42.0684 22.229C41.3294 21.8262 40.7538 21.2546 40.3352 20.5076C39.9166 19.7605 39.7139 18.8901 39.7139 17.8897C39.7139 16.8893 39.9166 16.0189 40.3287 15.2718C40.7407 14.5248 41.3163 13.9532 42.0554 13.5504C42.7944 13.1477 43.6447 12.9463 44.6061 12.9463C45.5414 12.9463 46.3721 13.1412 47.1046 13.5309C47.8306 13.9207 48.3996 14.4793 48.8117 15.2004C49.2237 15.9214 49.4265 16.7659 49.4265 17.7338C49.4199 18.0131 49.4003 18.2989 49.3676 18.5978ZM46.3852 16.9608C46.3852 16.4541 46.2151 16.0513 45.8685 15.759C45.5218 15.4602 45.0901 15.3108 44.5669 15.3108C44.0698 15.3108 43.6512 15.4537 43.3111 15.7395C42.971 16.0254 42.7617 16.4346 42.6767 16.9608H46.3852Z" fill="white"/>
<path d="M64.5348 13.0892L61.9186 22.6967H58.6418L57.1179 16.4671L55.5416 22.6967H52.2845L49.6487 13.0892H52.6115L53.9785 19.9554L55.6071 13.0892H58.7465L60.3947 19.923L61.7486 13.0892H64.5348Z" fill="white"/>
<path d="M66.9222 22.4046C66.2616 22.1187 65.7449 21.7225 65.3656 21.2288C64.9862 20.7351 64.7704 20.17 64.7246 19.5529H67.6547C67.6874 19.8841 67.8444 20.157 68.1191 20.3648C68.3938 20.5727 68.7405 20.6766 69.1394 20.6766C69.5122 20.6766 69.7935 20.6052 69.9962 20.4623C70.199 20.3194 70.2971 20.131 70.2971 19.9036C70.2971 19.6308 70.1532 19.4229 69.8654 19.293C69.5776 19.1631 69.1067 19.0137 68.4592 18.8513C67.7659 18.6889 67.1904 18.52 66.726 18.3446C66.2616 18.1692 65.8626 17.8834 65.5291 17.5001C65.1955 17.1169 65.0255 16.5972 65.0255 15.9411C65.0255 15.389 65.1759 14.8888 65.4833 14.4341C65.7907 13.9793 66.242 13.6221 66.8372 13.3557C67.4324 13.0894 68.1387 12.9595 68.9628 12.9595C70.1728 12.9595 71.1343 13.2583 71.8341 13.8559C72.5339 14.4535 72.9329 15.246 73.0375 16.2334H70.2971C70.2513 15.9021 70.1009 15.6358 69.8523 15.4409C69.6038 15.246 69.2768 15.1486 68.8713 15.1486C68.5246 15.1486 68.2565 15.2136 68.0733 15.3435C67.8902 15.4734 67.7986 15.6553 67.7986 15.8826C67.7986 16.1555 67.9425 16.3633 68.2434 16.4998C68.5377 16.6362 68.9955 16.7726 69.6234 16.9155C70.3429 17.0974 70.925 17.2793 71.3763 17.4547C71.8276 17.6301 72.22 17.9224 72.5666 18.3186C72.9067 18.7149 73.0833 19.2475 73.0964 19.9101C73.0964 20.4753 72.9394 20.9755 72.619 21.4172C72.2985 21.8589 71.8472 22.2032 71.252 22.4565C70.6568 22.7099 69.9701 22.8333 69.1787 22.8333C68.3349 22.8333 67.5828 22.6904 66.9222 22.4046Z" fill="white"/>
<path d="M6.3181 37.7024L3.74115 33.0578H3.01516V37.7024H0V25.3926H5.06887C6.0434 25.3926 6.88058 25.5615 7.56733 25.8993C8.25408 26.237 8.77077 26.7048 9.11088 27.2959C9.45098 27.887 9.62103 28.5431 9.62103 29.2707C9.62103 30.0891 9.38558 30.8232 8.9212 31.4663C8.45683 32.1094 7.77008 32.5641 6.86095 32.8369L9.71914 37.7154H6.3181V37.7024ZM3.0217 30.9336H4.89227C5.44821 30.9336 5.86026 30.7972 6.13496 30.5309C6.40966 30.2645 6.54701 29.8813 6.54701 29.3941C6.54701 28.9264 6.40966 28.5561 6.13496 28.2898C5.86026 28.0234 5.44167 27.887 4.89227 27.887H3.0217V30.9336Z" fill="white"/>
<path d="M19.7261 33.61H13.0221C13.0679 34.2076 13.2641 34.6623 13.6042 34.9806C13.9443 35.2989 14.3629 35.4548 14.8599 35.4548C15.599 35.4548 16.1157 35.143 16.4035 34.5259H19.556C19.3925 35.156 19.1047 35.7276 18.6796 36.2278C18.2544 36.7345 17.7312 37.1308 17.0968 37.4166C16.4624 37.7024 15.7494 37.8453 14.9646 37.8453C14.0162 37.8453 13.1725 37.6439 12.4334 37.2412C11.6944 36.8384 11.1188 36.2668 10.7002 35.5198C10.2816 34.7727 10.0789 33.9023 10.0789 32.9019C10.0789 31.9015 10.2816 31.0311 10.6937 30.284C11.1057 29.537 11.6813 28.9654 12.4203 28.5626C13.1594 28.1599 14.0097 27.9585 14.9711 27.9585C15.9064 27.9585 16.7371 28.1534 17.4696 28.5431C18.1956 28.9329 18.7646 29.4915 19.1767 30.2126C19.5887 30.9336 19.7915 31.7781 19.7915 32.746C19.7784 33.0253 19.7653 33.3111 19.7261 33.61ZM16.7436 31.973C16.7436 31.4663 16.5735 31.0636 16.2269 30.7712C15.8803 30.4724 15.4486 30.323 14.9253 30.323C14.4283 30.323 14.0097 30.4659 13.6696 30.7518C13.3295 31.0376 13.1202 31.4468 13.0352 31.973H16.7436Z" fill="white"/>
<path d="M25.1022 34.9481L27.2017 28.0948H30.3542L26.9204 37.7023H23.2643L19.8306 28.0948H23.0027L25.1022 34.9481Z" fill="white"/>
<path d="M39.9035 33.61H33.193C33.2388 34.2076 33.435 34.6623 33.7751 34.9806C34.1152 35.2989 34.5338 35.4548 35.0308 35.4548C35.7699 35.4548 36.2866 35.143 36.5744 34.5259H39.7269C39.5634 35.156 39.2756 35.7276 38.8505 36.2278C38.4253 36.7345 37.9021 37.1308 37.2677 37.4166C36.6333 37.7024 35.9203 37.8453 35.1355 37.8453C34.1871 37.8453 33.3434 37.6439 32.6043 37.2412C31.8653 36.8384 31.2897 36.2668 30.8711 35.5198C30.4525 34.7727 30.2498 33.9023 30.2498 32.9019C30.2498 31.9015 30.4525 31.0311 30.8646 30.284C31.2766 29.537 31.8522 28.9654 32.5912 28.5626C33.3303 28.1599 34.1806 27.9585 35.142 27.9585C36.0773 27.9585 36.908 28.1534 37.6405 28.5431C38.3665 28.9329 38.9355 29.4915 39.3476 30.2126C39.7596 30.9336 39.9624 31.7781 39.9624 32.746C39.9558 33.0253 39.9362 33.3111 39.9035 33.61ZM36.921 31.973C36.921 31.4663 36.751 31.0636 36.4043 30.7712C36.0577 30.4724 35.626 30.323 35.1028 30.323C34.6057 30.323 34.1871 30.4659 33.847 30.7518C33.5069 31.0376 33.2976 31.4468 33.2126 31.973H36.921Z" fill="white"/>
<path d="M49.701 29.0888C50.3747 29.8163 50.7148 30.8167 50.7148 32.0899V37.7024H47.7716V32.4861C47.7716 31.843 47.6015 31.3428 47.268 30.9856C46.9344 30.6283 46.4831 30.4529 45.9141 30.4529C45.3451 30.4529 44.9003 30.6283 44.5602 30.9856C44.2266 31.3428 44.0566 31.843 44.0566 32.4861V37.7024H41.0938V28.1014H44.0566V29.3746C44.3574 28.9523 44.763 28.6146 45.2731 28.3677C45.7833 28.1209 46.3523 27.9974 46.9867 27.9974C48.1248 27.9974 49.0273 28.3612 49.701 29.0888Z" fill="white"/>
<path d="M61.912 28.1013V37.7088H58.9492V36.4031C58.6483 36.8254 58.2428 37.1697 57.7261 37.4295C57.2094 37.6893 56.6404 37.8192 56.019 37.8192C55.28 37.8192 54.6259 37.6568 54.0634 37.3256C53.4944 37.0008 53.0562 36.5266 52.7488 35.9029C52.4349 35.2858 52.2844 34.5518 52.2844 33.7138V28.1013H55.2276V33.3176C55.2276 33.9607 55.3977 34.4608 55.7313 34.8181C56.0648 35.1754 56.5161 35.3508 57.0851 35.3508C57.6607 35.3508 58.1185 35.1754 58.4521 34.8181C58.7857 34.4608 58.9557 33.9607 58.9557 33.3176V28.1013H61.912Z" fill="white"/>
<path d="M73.0439 33.61H66.3399C66.3857 34.2076 66.5819 34.6623 66.922 34.9806C67.2621 35.2989 67.6807 35.4548 68.1778 35.4548C68.9169 35.4548 69.4336 35.143 69.7214 34.5259H72.8739C72.7104 35.156 72.4226 35.7276 71.9974 36.2278C71.5723 36.7345 71.0491 37.1308 70.4147 37.4166C69.7802 37.7024 69.0673 37.8453 68.2825 37.8453C67.3341 37.8453 66.4904 37.6439 65.7513 37.2412C65.0122 36.8384 64.4367 36.2668 64.0181 35.5198C63.5995 34.7727 63.3967 33.9023 63.3967 32.9019C63.3967 31.9015 63.5995 31.0311 64.0115 30.284C64.4236 29.537 64.9991 28.9654 65.7382 28.5626C66.4773 28.1599 67.3275 27.9585 68.289 27.9585C69.2243 27.9585 70.0549 28.1534 70.7875 28.5431C71.5134 28.9329 72.0825 29.4915 72.4945 30.2126C72.9066 30.9336 73.1093 31.7781 73.1093 32.746C73.0962 33.0253 73.0766 33.3111 73.0439 33.61ZM70.0615 31.973C70.0615 31.4663 69.8914 31.0636 69.5448 30.7712C69.1981 30.4724 68.7664 30.323 68.2432 30.323C67.7461 30.323 67.3275 30.4659 66.9874 30.7518C66.6473 31.0376 66.438 31.4468 66.353 31.973H70.0615Z" fill="white"/>
<path d="M76.2356 19.4813L76.2814 49.3562L208 30.1801V0L76.2356 19.4813Z" fill="#157CB2"/>
<path d="M86.0528 14.6223V21.443H95.2749V25.7693H86.0528V32.9798H96.4522V37.4231H80.5588V10.1791H96.4522V14.6223H86.0528Z" fill="white"/>
<path d="M118.075 17.9549C119.671 19.5789 120.469 21.846 120.469 24.7562V37.4232H114.975V25.4967C114.975 23.7818 114.543 22.4631 113.68 21.5407C112.816 20.6182 111.639 20.157 110.148 20.157C108.63 20.157 107.434 20.6182 106.557 21.5407C105.681 22.4631 105.243 23.7818 105.243 25.4967V37.4232H99.7485V15.8307H105.243V18.52C105.975 17.5846 106.91 16.8506 108.048 16.3179C109.186 15.7853 110.436 15.5189 111.796 15.5189C114.386 15.5189 116.479 16.3309 118.075 17.9549Z" fill="white"/>
<path d="M154.924 15.8306V37.4231H149.43V15.8306H154.924Z" fill="white"/>
<path d="M177.051 17.9549C178.646 19.5789 179.444 21.846 179.444 24.7562V37.4232H173.95V25.4967C173.95 23.7818 173.519 22.4631 172.655 21.5407C171.792 20.6182 170.615 20.157 169.123 20.157C167.606 20.157 166.409 20.6182 165.533 21.5407C164.656 22.4631 164.218 23.7818 164.218 25.4967V37.4232H158.724V15.8307H164.218V18.52C164.951 17.5846 165.886 16.8506 167.024 16.3179C168.162 15.7853 169.411 15.5189 170.772 15.5189C173.362 15.5189 175.455 16.3309 177.051 17.9549Z" fill="white"/>
<path d="M152.177 14.2717C153.972 14.2717 155.428 12.8262 155.428 11.0432C155.428 9.26014 153.972 7.8147 152.177 7.8147C150.382 7.8147 148.926 9.26014 148.926 11.0432C148.926 12.8262 150.382 14.2717 152.177 14.2717Z" fill="white"/>
<path d="M196.364 31.8821C195.501 32.7915 194.343 33.2528 192.865 33.2528C191.453 33.2528 190.262 32.811 189.294 31.9276C188.326 31.0441 187.777 29.8229 187.646 28.2639H203.539C203.644 27.6403 203.696 26.9387 203.696 26.1592C203.696 24.0545 203.245 22.1902 202.342 20.5662C201.44 18.9422 200.171 17.6885 198.536 16.805C196.901 15.9216 195.05 15.4799 192.983 15.4799C190.838 15.4799 188.941 15.9346 187.293 16.844C185.645 17.7534 184.363 19.0526 183.447 20.7416C182.531 22.4305 182.073 24.3923 182.073 26.6269C182.073 28.8355 182.538 30.7843 183.467 32.4732C184.395 34.1622 185.69 35.4679 187.352 36.3903C189.013 37.3127 190.89 37.7739 192.983 37.7739C195.573 37.7739 197.758 37.1048 199.537 35.7667C201.237 34.487 202.408 32.863 203.055 30.9012L196.364 31.8821ZM189.392 21.1898C190.321 20.3713 191.466 19.9621 192.826 19.9621C194.265 19.9621 195.481 20.3843 196.476 21.2288C197.47 22.0732 197.98 23.197 198.006 24.6002H187.685C187.895 23.1451 188.464 22.0083 189.392 21.1898Z" fill="white"/>
<path d="M139.966 15.8306V18.9097C139.259 17.8964 138.291 17.0714 137.062 16.4348C135.832 15.7982 134.406 15.4799 132.784 15.4799C130.927 15.4799 129.246 15.9346 127.742 16.844C126.237 17.7534 125.047 19.0526 124.171 20.7416C123.294 22.4305 122.856 24.3663 122.856 26.5489C122.856 28.7576 123.294 30.7128 124.171 32.4148C125.047 34.1167 126.244 35.4354 127.761 36.3708C129.279 37.3062 130.953 37.7739 132.784 37.7739C134.38 37.7739 135.8 37.4361 137.042 36.7606C138.285 36.085 139.259 35.2405 139.966 34.2271V37.579C139.966 39.5018 139.469 40.9374 138.475 41.8859C137.48 42.8343 136.185 43.3085 134.59 43.3085C133.229 43.3085 132.071 43.0162 131.117 42.4315C130.691 42.1717 130.345 41.8664 130.057 41.5286L124.354 42.3601C124.91 43.7762 125.838 44.9649 127.153 45.9198C129.128 47.3489 131.659 48.0635 134.747 48.0635C137.049 48.0635 139.011 47.6023 140.633 46.6799C142.255 45.7574 143.472 44.5102 144.283 42.9382C145.094 41.3662 145.499 39.5798 145.499 37.579V15.8306H139.966ZM139.181 30.0373C138.658 30.9857 137.951 31.7132 137.062 32.2199C136.172 32.7266 135.217 32.9799 134.197 32.9799C133.203 32.9799 132.268 32.7201 131.391 32.2004C130.515 31.6807 129.808 30.9337 129.272 29.9593C128.736 28.9849 128.468 27.8481 128.468 26.5489C128.468 25.2498 128.736 24.126 129.272 23.1775C129.808 22.2291 130.508 21.5081 131.372 21.0144C132.235 20.5207 133.177 20.2739 134.197 20.2739C135.217 20.2739 136.172 20.5272 137.062 21.0339C137.951 21.5406 138.658 22.2681 139.181 23.2165C139.704 24.1649 139.966 25.3017 139.966 26.6269C139.966 27.9521 139.704 29.0889 139.181 30.0373Z" fill="white"/>
</svg>
