<svg version="1.1" id="Layer_1" x="0" y="0" xml:space="preserve" width="150" height="150" xmlns="http://www.w3.org/2000/svg"><style type="text/css" id="style9">.st1{fill:#282828}</style><path id="polygon11" transform="translate(8.185 23.9)" style="fill:#f5ff75" d="m1.5 99.51 130.68-37.62V2.69L1.45 40.91z"/><g id="g17" transform="translate(8.185 23.9)"><path class="st1" d="M50.07 73.64h-11L20.71 45.86v27.78H9.74V28.58h10.97l18.36 27.93V28.56h10.97v45.08z" id="path13"/><path class="st1" d="M79.84 73.59 70.48 56.6h-2.64v16.99H56.89V28.56H75.3c3.54 0 6.58.62 9.08 1.85 2.5 1.24 4.37 2.95 5.61 5.11 1.24 2.16 1.85 4.56 1.85 7.22 0 2.99-.86 5.68-2.54 8.03-1.69 2.35-4.18 4.02-7.49 5.01L92.2 73.64H79.84ZM67.86 48.83h6.8c2.02 0 3.52-.5 4.52-1.47 1-.97 1.5-2.38 1.5-4.16 0-1.71-.5-3.07-1.5-4.04-1-.97-2.52-1.47-4.52-1.47h-6.8z" id="path15"/></g><g id="g25" transform="translate(8.185 23.9)"><g id="g23"><g id="g21"><path class="st1" d="M106.81 35.91V47.2h15.16v7.16h-15.16v11.93h17.09v7.35H97.78V28.56h26.12v7.35h-17.09z" id="path19"/></g></g></g></svg>
