<svg width="181" height="46" viewBox="0 0 181 46" fill="none" xmlns="http://www.w3.org/2000/svg">
<path d="M34.2392 21.316H31.6901L27.4366 14.8681V21.3008H24.8875V10.878H27.4366L31.6901 17.341V10.8628H34.2392V21.316Z" fill="white"/>
<path d="M43.5908 17.7658H37.829C37.8743 18.2817 38.0402 18.6761 38.3268 18.9492C38.6133 19.2223 38.9753 19.3588 39.3977 19.3588C40.0312 19.3588 40.4686 19.0858 40.725 18.5548H43.44C43.3043 19.1009 43.0478 19.5864 42.6858 20.0264C42.3238 20.4664 41.8713 20.8001 41.3283 21.0581C40.7853 21.3008 40.1669 21.4222 39.5033 21.4222C38.6888 21.4222 37.9648 21.2553 37.3313 20.9063C36.6978 20.5574 36.2 20.0719 35.838 19.4195C35.476 18.7672 35.3101 18.0237 35.3101 17.159C35.3101 16.2942 35.4911 15.5356 35.838 14.8984C36.1849 14.246 36.6827 13.7606 37.3162 13.4116C37.9497 13.0627 38.6737 12.8958 39.5033 12.8958C40.3027 12.8958 41.0267 13.0627 41.6451 13.3964C42.2635 13.7302 42.7612 14.2157 43.1082 14.8377C43.4551 15.4598 43.6361 16.188 43.6361 17.0224C43.6361 17.2652 43.621 17.5079 43.5908 17.7658ZM41.0267 16.3549C41.0267 15.9149 40.8758 15.566 40.5893 15.3232C40.2876 15.0653 39.9256 14.9288 39.4731 14.9288C39.0508 14.9288 38.6888 15.0501 38.4022 15.2929C38.1156 15.5356 37.9346 15.8997 37.8592 16.3549H41.0267Z" fill="white"/>
<path d="M56.6078 13.0172L54.3603 21.316H51.5398L50.2275 15.9301L48.87 21.316H46.0796L43.8171 13.0172H46.3662L47.5427 18.9492L48.9454 13.0172H51.6453L53.0632 18.9189L54.2246 13.0172H56.6078Z" fill="white"/>
<path d="M58.6591 21.0581C58.0859 20.8153 57.6485 20.4664 57.3167 20.0416C56.9848 19.6168 56.8038 19.1313 56.7737 18.6003H59.2926C59.3228 18.8885 59.4585 19.1161 59.6848 19.2982C59.9261 19.4802 60.2127 19.5712 60.5596 19.5712C60.8763 19.5712 61.1177 19.5106 61.2987 19.3892C61.4797 19.2678 61.5551 19.1009 61.5551 18.9037C61.5551 18.661 61.4344 18.4941 61.178 18.3727C60.9367 18.2665 60.5294 18.13 59.9713 17.9934C59.3831 17.8569 58.8853 17.7051 58.4781 17.5534C58.0859 17.4017 57.739 17.159 57.4524 16.8252C57.1658 16.4914 57.015 16.0515 57.015 15.4749C57.015 15.0046 57.1508 14.5646 57.4072 14.1702C57.6787 13.7757 58.0557 13.4723 58.5686 13.2447C59.0814 13.0172 59.6847 12.8958 60.3937 12.8958C61.4344 12.8958 62.264 13.1537 62.8523 13.6695C63.4405 14.1854 63.8025 14.8681 63.893 15.7177H61.54C61.4948 15.4294 61.3741 15.2019 61.1629 15.035C60.9518 14.8681 60.6652 14.777 60.3182 14.777C60.0166 14.777 59.7903 14.8377 59.6395 14.9439C59.4887 15.0501 59.3982 15.217 59.3982 15.4143C59.3982 15.657 59.5188 15.8239 59.7752 15.9453C60.0317 16.0666 60.4238 16.188 60.9668 16.3094C61.5853 16.4611 62.083 16.628 62.4752 16.7797C62.8673 16.9314 63.1992 17.1893 63.5008 17.5231C63.7874 17.872 63.9383 18.3272 63.9533 18.9037C63.9533 19.3892 63.8176 19.8292 63.5461 20.2084C63.2746 20.5877 62.8824 20.8912 62.3696 21.1036C61.8568 21.316 61.2685 21.4222 60.5898 21.4222C59.8808 21.4222 59.2322 21.3008 58.6591 21.0581Z" fill="white"/>
<path d="M6.62158 34.2724L4.40433 30.2672H3.78592V34.2724H1.19158V23.6372H5.55067C6.38025 23.6372 7.10425 23.7889 7.6925 24.0772C8.28075 24.3654 8.73325 24.7751 9.01983 25.2909C9.30641 25.8067 9.45725 26.3681 9.45725 26.9901C9.45725 27.7032 9.26117 28.3252 8.85392 28.8865C8.46175 29.4479 7.85842 29.8272 7.08917 30.0699L9.53267 34.2876L6.62158 34.2724ZM3.78592 28.4162H5.38475C5.86742 28.4162 6.21433 28.2949 6.45567 28.0673C6.697 27.8397 6.80258 27.5059 6.80258 27.0811C6.80258 26.6715 6.68191 26.3529 6.45567 26.1253C6.21433 25.8978 5.86742 25.7764 5.38475 25.7764H3.78592V28.4162Z" fill="white"/>
<path d="M18.1302 30.7375H12.3683C12.4136 31.2533 12.5795 31.6477 12.8661 31.9208C13.1527 32.1939 13.5147 32.3305 13.937 32.3305C14.5705 32.3305 15.0079 32.0574 15.2643 31.5264H17.9643C17.8285 32.0725 17.5721 32.558 17.2101 32.998C16.8481 33.438 16.3956 33.7718 15.8526 34.0297C15.3096 34.2876 14.6912 34.3938 14.0275 34.3938C13.213 34.3938 12.489 34.2269 11.8555 33.878C11.222 33.529 10.7243 33.0435 10.3623 32.3911C10.0003 31.7388 9.83434 30.9954 9.83434 30.1306C9.83434 29.2658 10.0153 28.5072 10.3623 27.87C10.7092 27.2177 11.2069 26.7322 11.8404 26.3832C12.4739 26.0343 13.1979 25.8674 14.0275 25.8674C14.8269 25.8674 15.5509 26.0343 16.1693 26.3681C16.7878 26.7018 17.2855 27.1873 17.6324 27.8094C17.9793 28.4314 18.1603 29.1596 18.1603 29.994C18.1754 30.2368 18.1603 30.4795 18.1302 30.7375ZM15.566 29.3265C15.566 28.8865 15.4152 28.5376 15.1286 28.2948C14.8269 28.0369 14.4649 27.9004 14.0124 27.9004C13.5901 27.9004 13.2281 28.0218 12.9415 28.2645C12.6549 28.5072 12.4739 28.8714 12.3985 29.3265H15.566Z" fill="white"/>
<path d="M22.7457 31.8905L24.5557 25.9736H27.2556L24.3143 34.2724H21.177L18.2357 25.9736H20.9658L22.7457 31.8905Z" fill="white"/>
<path d="M35.4609 30.7375H29.6991C29.7443 31.2533 29.9103 31.6477 30.1968 31.9208C30.4834 32.1939 30.8454 32.3305 31.2678 32.3305C31.9013 32.3305 32.3387 32.0574 32.5951 31.5264H35.295C35.1593 32.0725 34.9028 32.558 34.5408 32.998C34.1788 33.438 33.7263 33.7718 33.1833 34.0297C32.6403 34.2724 32.0219 34.3938 31.3582 34.3938C30.5437 34.3938 29.8198 34.2269 29.1863 33.878C28.5528 33.529 28.055 33.0435 27.693 32.3911C27.331 31.7388 27.1651 30.9954 27.1651 30.1306C27.1651 29.2658 27.3461 28.5072 27.693 27.87C28.0399 27.2177 28.5377 26.7322 29.1712 26.3832C29.8047 26.0343 30.5287 25.8674 31.3582 25.8674C32.1577 25.8674 32.8817 26.0343 33.5001 26.3681C34.1185 26.7018 34.6163 27.1873 34.9632 27.8094C35.3101 28.4314 35.4911 29.1596 35.4911 29.994C35.5062 30.2368 35.4911 30.4795 35.4609 30.7375ZM32.8968 29.3265C32.8968 28.8865 32.7459 28.5376 32.4593 28.2948C32.1577 28.0369 31.7957 27.9004 31.3432 27.9004C30.9208 27.9004 30.5588 28.0218 30.2723 28.2645C29.9857 28.5072 29.8047 28.8714 29.7293 29.3265H32.8968Z" fill="white"/>
<path d="M43.8774 26.8232C44.4506 27.4453 44.7523 28.31 44.7523 29.4176V34.2724H42.2182V29.7665C42.2182 29.2052 42.0674 28.7804 41.7808 28.4769C41.4942 28.1735 41.1021 28.0218 40.6194 28.0218C40.1367 28.0218 39.7446 28.1735 39.458 28.4769C39.1714 28.7804 39.0206 29.2203 39.0206 29.7665V34.2724H36.4715V25.9736H39.0206V27.066C39.277 26.7019 39.6239 26.4136 40.0613 26.2012C40.4988 25.9888 40.9814 25.8826 41.5395 25.8826C42.5199 25.8826 43.2892 26.2012 43.8774 26.8232Z" fill="white"/>
<path d="M54.3603 25.9736V34.2724H51.8112V33.1497C51.5548 33.5138 51.2079 33.8173 50.7554 34.0297C50.318 34.2572 49.8202 34.3634 49.2923 34.3634C48.6588 34.3634 48.1007 34.2269 47.6181 33.9386C47.1354 33.6656 46.7583 33.2559 46.4868 32.7098C46.2153 32.1788 46.0947 31.5415 46.0947 30.8133V25.9584H48.6287V30.4644C48.6287 31.0257 48.7795 31.4505 49.0661 31.7539C49.3527 32.0574 49.7448 32.2091 50.2275 32.2091C50.7252 32.2091 51.1174 32.0574 51.404 31.7539C51.6906 31.4505 51.8414 31.0105 51.8414 30.4644V25.9584H54.3603V25.9736Z" fill="white"/>
<path d="M63.9232 30.7375H58.1613C58.2066 31.2533 58.3725 31.6477 58.6591 31.9208C58.9457 32.1939 59.3077 32.3305 59.73 32.3305C60.3635 32.3305 60.8009 32.0574 61.0573 31.5264H63.7572C63.6215 32.0725 63.3651 32.558 63.0031 32.998C62.6411 33.438 62.1886 33.7718 61.6456 34.0297C61.1026 34.2724 60.4842 34.3938 59.8205 34.3938C59.006 34.3938 58.282 34.2269 57.6485 33.878C57.015 33.529 56.5172 33.0435 56.1552 32.3911C55.7932 31.7388 55.6273 30.9954 55.6273 30.1306C55.6273 29.2658 55.8083 28.5072 56.1552 27.87C56.5022 27.2177 56.9999 26.7322 57.6334 26.3832C58.2669 26.0343 58.9909 25.8674 59.8205 25.8674C60.6199 25.8674 61.3439 26.0343 61.9623 26.3681C62.5807 26.7018 63.0785 27.1873 63.4254 27.8094C63.7723 28.4314 63.9533 29.1596 63.9533 29.994C63.9684 30.2368 63.9382 30.4795 63.9232 30.7375ZM61.359 29.3265C61.359 28.8865 61.2082 28.5376 60.9216 28.2948C60.6199 28.0369 60.2579 27.9004 59.8054 27.9004C59.3831 27.9004 59.0211 28.0218 58.7345 28.2645C58.4479 28.5072 58.2669 28.8714 58.1915 29.3265H61.359Z" fill="white"/>
<path d="M66.6533 18.5244L66.6985 44.3311L179.808 27.7639V1.69922L66.6533 18.5244Z" fill="#157CB2"/>
<path d="M75.0848 14.3371V20.2236H83.0036V23.9558H75.0848V30.1913H84.0142V34.0297H70.3638V10.4987H84.0142V14.3371H75.0848Z" fill="white"/>
<path d="M102.582 17.2196C103.954 18.6154 104.633 20.5877 104.633 23.091V34.0297H99.912V23.7282C99.912 22.2414 99.5349 21.1035 98.7958 20.3146C98.0567 19.5105 97.0462 19.1161 95.7641 19.1161C94.4669 19.1161 93.4262 19.5105 92.6871 20.3146C91.9329 21.1187 91.5558 22.2566 91.5558 23.7282V34.0297H86.8347V15.3839H91.5558V17.7051C92.1893 16.901 92.9887 16.2638 93.9692 15.8087C94.9496 15.3535 96.0205 15.126 97.1819 15.126C99.4142 15.1108 101.209 15.8087 102.582 17.2196Z" fill="white"/>
<path d="M134.227 15.3839V34.0297H129.506V15.3839H134.227Z" fill="white"/>
<path d="M153.232 17.2196C154.604 18.6154 155.283 20.5877 155.283 23.091V34.0297H150.562V23.7282C150.562 22.2414 150.185 21.1035 149.446 20.3146C148.707 19.5105 147.696 19.1161 146.414 19.1161C145.117 19.1161 144.076 19.5105 143.337 20.3146C142.583 21.1187 142.206 22.2566 142.206 23.7282V34.0297H137.485V15.3839H142.206V17.7051C142.839 16.901 143.639 16.2638 144.619 15.8087C145.599 15.3535 146.67 15.126 147.832 15.126C150.064 15.1108 151.859 15.8087 153.232 17.2196Z" fill="white"/>
<path d="M131.874 14.0336C133.412 14.0336 134.664 12.7896 134.664 11.2421C134.664 9.69459 133.412 8.45053 131.874 8.45053C130.335 8.45053 129.083 9.69459 129.083 11.2421C129.083 12.7896 130.335 14.0336 131.874 14.0336Z" fill="white"/>
<path d="M169.808 29.2355C169.069 30.0244 168.074 30.4189 166.807 30.4189C165.6 30.4189 164.574 30.0396 163.745 29.281C162.915 28.5224 162.448 27.4604 162.327 26.1102H175.977C176.068 25.564 176.113 24.9723 176.113 24.2896C176.113 22.469 175.721 20.8608 174.952 19.465C174.182 18.0693 173.081 16.9769 171.679 16.2183C170.276 15.4598 168.692 15.0805 166.912 15.0805C165.072 15.0805 163.443 15.4749 162.025 16.2639C160.607 17.0528 159.506 18.1755 158.722 19.6319C157.938 21.0884 157.545 22.7876 157.545 24.7144C157.545 26.626 157.938 28.31 158.737 29.7665C159.536 31.223 160.653 32.3456 162.07 33.1497C163.503 33.9538 165.102 34.3483 166.912 34.3483C169.129 34.3483 171.015 33.7718 172.538 32.6187C174.001 31.5112 174.997 30.1154 175.555 28.4162L169.808 29.2355ZM163.835 20.0112C164.635 19.2982 165.615 18.9492 166.792 18.9492C168.028 18.9492 169.069 19.3133 169.929 20.0416C170.789 20.7698 171.226 21.7408 171.241 22.9545H162.372C162.538 21.6953 163.036 20.7091 163.835 20.0112Z" fill="white"/>
<path d="M121.391 15.3839V18.0389C120.787 17.159 119.958 16.4459 118.902 15.8997C117.846 15.3536 116.624 15.0805 115.222 15.0805C113.623 15.0805 112.19 15.4749 110.893 16.2639C109.595 17.0528 108.585 18.1755 107.831 19.6319C107.077 21.0884 106.7 22.7573 106.7 24.6537C106.7 26.5653 107.077 28.2493 107.831 29.721C108.585 31.1926 109.611 32.3305 110.908 33.1346C112.205 33.9387 113.653 34.3483 115.222 34.3483C116.594 34.3483 117.816 34.06 118.872 33.4683C119.943 32.8918 120.772 32.1484 121.376 31.2836V34.1814C121.376 35.8351 120.953 37.0792 120.093 37.8984C119.234 38.7177 118.133 39.1273 116.76 39.1273C115.599 39.1273 114.603 38.8694 113.774 38.3687C113.412 38.1412 113.11 37.8832 112.869 37.595L107.966 38.3081C108.449 39.5369 109.233 40.5534 110.365 41.3879C112.054 42.6168 114.241 43.2388 116.881 43.2388C118.857 43.2388 120.546 42.8443 121.934 42.0402C123.321 41.2362 124.377 40.159 125.071 38.8087C125.765 37.4584 126.112 35.911 126.112 34.1814V15.3839H121.391ZM120.712 27.6425C120.259 28.4617 119.656 29.0838 118.887 29.5237C118.118 29.9637 117.303 30.1761 116.428 30.1761C115.569 30.1761 114.769 29.9486 114.015 29.5086C113.261 29.0534 112.657 28.4162 112.19 27.5666C111.722 26.7322 111.496 25.746 111.496 24.6234C111.496 23.5007 111.722 22.5297 112.19 21.7104C112.657 20.8912 113.246 20.2691 114 19.8443C114.739 19.4195 115.553 19.2071 116.428 19.2071C117.303 19.2071 118.118 19.4195 118.887 19.8595C119.656 20.2995 120.259 20.9215 120.712 21.7408C121.164 22.56 121.391 23.5462 121.391 24.684C121.391 25.8522 121.164 26.8232 120.712 27.6425Z" fill="white"/>
</svg>
