<svg width="24" height="25" viewBox="0 0 24 25" fill="none" xmlns="http://www.w3.org/2000/svg">
<g clip-path="url(#clip0_90_3)">
<path fill-rule="evenodd" clip-rule="evenodd" d="M0 24.0589H23.2727V0.0588989H0V24.0589Z" fill="url(#paint0_radial_90_3)"/>
<path fill-rule="evenodd" clip-rule="evenodd" d="M2.08518 10.4612L1.63982 9.34606L1.19718 10.4612H2.08518ZM11.8846 10.0187C11.7966 10.0703 11.6908 10.0759 11.5634 10.0759H10.7734V9.45312H11.5738C11.6881 9.45312 11.8067 9.45753 11.8838 9.50075C11.9668 9.5435 12.0195 9.63022 12.0195 9.74937C12.0195 9.87284 11.9684 9.96912 11.8846 10.0187V10.0187ZM17.5161 10.4612L17.0681 9.34606L16.6227 10.4612H17.5161ZM7.01864 11.6706H6.35236L6.34846 9.47759L5.40709 11.6706H4.83655L3.89018 9.47272V11.6706H2.568L2.31918 11.0456H0.965455L0.714273 11.6706H0.00772727L1.17009 8.86681H2.13709L3.24209 11.5231V8.86681H4.30445L5.154 10.7705L5.93609 8.86681H7.01864V11.6706V11.6706ZM9.67318 11.6706H7.50182V8.86681H9.673V9.45312H8.15346V9.95637H9.63591V10.5327L8.15346 10.5303V11.0903H9.67309V11.6706H9.67318ZM12.7354 9.62422C12.7354 10.0675 12.4463 10.3017 12.2788 10.3708C12.4206 10.4272 12.5412 10.5239 12.5977 10.6078C12.6895 10.7445 12.7078 10.8725 12.7078 11.1191V11.6706H12.0521L12.0501 11.3181C12.0501 11.1514 12.0655 10.9084 11.9446 10.7742C11.8497 10.6738 11.7067 10.653 11.4719 10.653H10.7735V11.6706H10.1239V8.86681H11.6203C11.9505 8.86681 12.1963 8.87806 12.4071 9.00275C12.6129 9.12659 12.7354 9.31006 12.7354 9.62431V9.62422ZM13.1133 11.6706H13.7764V8.86644H13.1133V11.6706ZM21.4697 11.6706H20.5477L19.3153 9.56825L19.3175 11.6706H17.9936L17.7401 11.0456H16.3883L16.1453 11.6706H15.3844C15.0674 11.6706 14.6666 11.5979 14.4423 11.3617C14.2113 11.1222 14.0945 10.8013 14.0945 10.2901C14.0945 9.87444 14.1655 9.49475 14.4445 9.19456C14.655 8.97078 14.9833 8.86681 15.4317 8.86681H16.0599V9.46719H15.4456C15.2081 9.46719 15.0729 9.50469 14.9434 9.63462C14.8341 9.75294 14.7565 9.97587 14.7565 10.2705C14.7565 10.5715 14.8147 10.7857 14.9372 10.9292C15.0348 11.0391 15.2174 11.0723 15.3891 11.0723H15.6814L16.5972 8.86681H17.5708L18.6718 11.5192V8.86672H19.6629L20.8051 10.8192V8.86672H21.4697V11.6705V11.6706ZM0 12.223H1.11082L1.36118 11.5979H1.92164L2.17118 12.223H4.35709V11.7458L4.55255 12.2246H5.68527L5.87991 11.7398V12.223H11.3114L11.3086 11.2002H11.4137C11.4877 11.2018 11.5098 11.2106 11.5098 11.3365V12.223H14.3171V11.9852C14.5438 12.1107 14.8969 12.223 15.3589 12.223H16.5414L16.7936 11.5979H17.3549L17.6049 12.223H19.8799V11.6303L20.2253 12.223H22.0473V8.31125H20.2435V8.77447L19.9916 8.31134H18.1373V8.77447L17.9055 8.31134H15.4027C14.9834 8.31134 14.614 8.37078 14.3172 8.53944V8.31125H12.5921V8.53944C12.4003 8.366 12.1425 8.31125 11.8568 8.31125H5.54664L5.12145 9.32281L4.68891 8.31125H2.70182V8.77447L2.48127 8.31134H0.786727L0 10.1694V12.2229V12.223ZM23.155 14.292H21.9683C21.8501 14.292 21.7714 14.2968 21.7078 14.342C21.6396 14.3867 21.6109 14.4567 21.6109 14.5458C21.6109 14.6498 21.6691 14.7217 21.7555 14.7529C21.8206 14.7777 21.8962 14.784 22.007 14.7857L22.3551 14.7948C22.7101 14.8052 22.9493 14.8676 23.0945 15.0198C23.119 15.0423 23.1364 15.069 23.155 15.0906V14.292ZM23.155 16.1413C22.9954 16.3804 22.688 16.5007 22.271 16.5007H21.0152V15.898H22.2671C22.3892 15.898 22.4768 15.8808 22.5307 15.8284C22.5744 15.7872 22.6078 15.7237 22.6078 15.6465C22.6078 15.5638 22.5745 15.4983 22.5291 15.4607C22.4784 15.4164 22.4113 15.3984 22.2989 15.3968C21.6889 15.3772 20.9273 15.4164 20.9273 14.5294C20.9273 14.123 21.1788 13.6949 21.8586 13.6949H23.155V13.1369H21.9509C21.5874 13.1369 21.3242 13.2256 21.1363 13.3672V13.1369H19.3561C19.0743 13.1369 18.7406 13.2101 18.5802 13.3672L18.5825 13.1369H15.404V13.3672C15.1509 13.1789 14.7254 13.1369 14.5258 13.1369H12.4325V13.3672C12.2313 13.1666 11.7887 13.1369 11.5162 13.1369H9.16982L8.63382 13.7381L8.13109 13.1369H4.62618V17.051H8.06555L8.619 16.4427L9.14027 17.0511L11.2572 17.0527V16.1322H11.4669C11.7464 16.1362 12.0805 16.1258 12.3726 15.9955V17.0511H14.1203V16.0307H14.2044C14.3121 16.0307 14.3229 16.0371 14.3229 16.147V17.0511H19.6335C19.9684 17.0511 20.3203 16.962 20.5172 16.8021V17.0511H22.202C22.5527 17.0511 22.8935 17.0011 23.155 16.872V16.1413V16.1413ZM20.561 15.0199C20.6881 15.1558 20.7555 15.3272 20.7555 15.6146C20.7555 16.2197 20.3893 16.5007 19.7351 16.5007H18.4673V15.898H19.7293C19.8541 15.898 19.9405 15.8808 19.9971 15.8284C20.0211 15.805 20.0401 15.7768 20.0529 15.7455C20.0658 15.7142 20.0723 15.6805 20.0719 15.6465C20.0719 15.5638 20.037 15.4983 19.9925 15.4607C19.9425 15.4164 19.8745 15.3984 19.7618 15.3968C19.1522 15.3772 18.3929 15.4164 18.3929 14.5294C18.3929 14.123 18.6405 13.6949 19.3195 13.6949H20.6245V14.292H19.4339C19.3142 14.292 19.2363 14.2968 19.1712 14.342C19.1006 14.3867 19.0743 14.4567 19.0743 14.5458C19.0743 14.6498 19.1347 14.7217 19.2173 14.7529C19.2839 14.7777 19.356 14.784 19.468 14.7857L19.8184 14.7948C20.1735 14.8052 20.4134 14.8676 20.561 15.0198V15.0199ZM14.695 14.848C14.6097 14.8995 14.5008 14.9048 14.3756 14.9048H13.5854V14.2765H14.3861C14.5008 14.2765 14.6186 14.2788 14.695 14.3248C14.7795 14.372 14.8299 14.4583 14.8299 14.5794C14.8299 14.6982 14.7795 14.7948 14.695 14.848V14.848ZM15.088 15.1969C15.2325 15.2509 15.3507 15.35 15.4062 15.4319C15.4977 15.5695 15.5128 15.6972 15.5135 15.9439V16.5008H14.8625V16.1502C14.8625 15.9799 14.8784 15.7309 14.7566 15.6014C14.6628 15.4983 14.5175 15.4755 14.2811 15.4755H13.5854V16.5007H12.9331V13.6949H14.4326C14.7628 13.6949 15.0027 13.7089 15.2155 13.8276C15.4205 13.9543 15.5477 14.1322 15.5477 14.4515C15.5477 14.8972 15.2594 15.1257 15.088 15.1969V15.1969ZM15.9093 13.6949H18.0797V14.2765H16.557V14.784H18.0417V15.3568H16.5569V15.9144L18.0797 15.9176V16.5007H15.9093V13.6949ZM11.525 14.9887H10.6832V14.2765H11.532C11.7665 14.2765 11.9289 14.3727 11.9289 14.6202C11.9289 14.862 11.7743 14.9887 11.525 14.9887V14.9887ZM10.0359 16.2461L9.04 15.1034L10.0361 13.9962V16.2461H10.0359ZM7.45936 15.9144H5.86136V15.3568H7.28818V14.784H5.86136V14.2765H7.49073L8.20046 15.0922L7.45936 15.9144V15.9144ZM12.6262 14.6202C12.6262 15.3968 12.0642 15.5591 11.4944 15.5591H10.6832V16.5007H9.42164L8.62091 15.5726L7.78918 16.5007H5.21527V13.6949H7.82909L8.62873 14.6138L9.455 13.6949H11.532C12.0483 13.6949 12.6262 13.8416 12.6262 14.6202V14.6202Z" fill="white"/>
<path fill-rule="evenodd" clip-rule="evenodd" d="M12.7354 9.62457C12.7354 10.0683 12.4466 10.3017 12.2795 10.3708C12.4214 10.4272 12.542 10.5247 12.5985 10.6078C12.6904 10.7454 12.7083 10.8725 12.7083 11.1199V11.6706H12.0528L12.0501 11.3184C12.0501 11.1514 12.0664 10.9084 11.9451 10.7741C11.8497 10.6738 11.7075 10.653 11.4718 10.653H10.7742V11.6706H10.1239V8.86679H11.6211C11.9505 8.86679 12.1965 8.87804 12.4071 9.00273C12.6136 9.12657 12.7354 9.31004 12.7354 9.62457" fill="#2F9BCA"/>
<path fill-rule="evenodd" clip-rule="evenodd" d="M9.67395 11.6706H7.50195V8.86642H9.67395V9.45311H8.1535V9.95636H9.63595V10.5327L8.1535 10.5311V11.0911H9.67395" fill="#2EA3D0"/>
<path fill-rule="evenodd" clip-rule="evenodd" d="M7.01863 11.6706H6.35236L6.34845 9.47758L5.40782 11.6706H4.83736L3.89009 9.47355V11.6706H2.56845L2.31927 11.0459H0.965451L0.715088 11.6706H0.00817871L1.17045 8.86642H2.13709L3.24209 11.5236V8.86642H4.30482L5.15472 10.7713L5.93609 8.86642H7.01863" fill="#55B2D8"/>
<path fill-rule="evenodd" clip-rule="evenodd" d="M11.8854 10.0187C11.797 10.0711 11.6912 10.0759 11.5645 10.0759H10.7741V9.45313H11.5745C11.6889 9.45313 11.8071 9.45754 11.8838 9.50151C11.9675 9.54351 12.0199 9.63023 12.0199 9.74976C12.0199 9.87285 11.9691 9.96998 11.8853 10.0188L11.8854 10.0187ZM2.08551 10.4612L1.63978 9.34607L1.19714 10.4612" fill="white"/>
</g>
<defs>
<radialGradient id="paint0_radial_90_3" cx="0" cy="0" r="1" gradientUnits="userSpaceOnUse" gradientTransform="translate(3.86537 4.22818) scale(27.5828 28.4448)">
<stop stop-color="#88CDE7"/>
<stop offset="1" stop-color="#2274AD"/>
</radialGradient>
<clipPath id="clip0_90_3">
<rect width="23.2727" height="24" fill="white" transform="translate(0 0.0588989)"/>
</clipPath>
</defs>
</svg>
