<svg width="17" height="15" viewBox="0 0 17 15" fill="none" xmlns="http://www.w3.org/2000/svg">
<path d="M6.54116 10.0796L8.49116 8.95258L10.4412 10.0796L9.92449 7.96845L11.6578 6.53988L9.37449 6.36527L8.49116 4.36527L7.60783 6.36527L5.32449 6.53988L7.05783 7.96845L6.54116 10.0796ZM8.49116 14.5557L6.25782 12.4605H3.15782V9.50813L0.957825 7.38115L3.15782 5.25416V2.30178H6.25782L8.49116 0.206543L10.7245 2.30178H13.8245V5.25416L16.0245 7.38115L13.8245 9.50813V12.4605H10.7245L8.49116 14.5557ZM8.49116 12.778L10.1578 11.1907H12.4912V8.96845L14.1578 7.38115L12.4912 5.79384V3.57162H10.1578L8.49116 1.98432L6.82449 3.57162H4.49116V5.79384L2.82449 7.38115L4.49116 8.96845V11.1907H6.82449L8.49116 12.778Z" fill="#282828"/>
</svg>
