<svg width="19" height="18" viewBox="0 0 19 18" xmlns="http://www.w3.org/2000/svg">
  <path
    d="M8.70841 14.8333V16.4166H2.37508C1.50425 16.4166 0.791748 15.7041 0.791748 14.8333V2.16665C0.791748 1.29581 1.50425 0.583313 2.37508 0.583313H16.6251C17.4959 0.583313 18.2084 1.29581 18.2084 2.16665V8.57915L18.0501 8.42081C17.6542 8.02498 17.1792 7.78748 16.6251 7.78748V3.74998H2.37508V14.8333H8.70841ZM16.9417 9.52915L17.9709 10.5583C18.1292 10.7166 18.1292 11.0333 17.9709 11.1916L17.1792 11.9833L15.5167 10.3208L16.3084 9.52915C16.3876 9.44998 16.4667 9.37081 16.6251 9.37081C16.7834 9.37081 16.8626 9.44998 16.9417 9.52915ZM16.7042 12.3791L11.9542 17.2083H10.2917V15.5458L15.1209 10.7166L16.7042 12.3791Z"
    fill="currentColor"
  />
</svg>
