<svg width="33" height="21" viewBox="0 0 33 21" fill="none" xmlns="http://www.w3.org/2000/svg">
<g clip-path="url(#clip0_90_14)">
<path d="M0.109985 0.2686H32.0552V20.0027H0.118783L0.109985 0.2686Z" fill="white"/>
<path d="M31.9452 11.2448C31.9452 11.2448 23.2161 17.2174 7.23035 19.896H31.9452V11.2448Z" fill="#F48120"/>
<path d="M32.0551 0.153358H0V20.1174H32.1739V0.145432H32.0551V0.153358ZM31.9452 0.375309C31.9452 0.597261 31.9452 19.6656 31.9452 19.8875C31.7164 19.8875 0.465642 19.8875 0.236906 19.8875C0.236906 19.6656 0.236906 0.597261 0.236906 0.375309C0.465642 0.375309 31.7083 0.375309 31.9452 0.375309Z" fill="#231F20"/>
<path d="M2.81087 6.25763H1.48181V10.7765H2.81087C3.51342 10.7765 4.02179 10.6125 4.47047 10.2588C5.00397 9.83141 5.31692 9.19056 5.31692 8.52531C5.30875 7.18629 4.28446 6.25763 2.81087 6.25763ZM3.87789 9.65885C3.59008 9.90519 3.22624 10.0204 2.63303 10.0204H2.38796V7.03019H2.63366C3.21807 7.03019 3.57374 7.12897 3.87852 7.39178C4.19209 7.66312 4.37809 8.08202 4.37809 8.51739C4.37746 8.95275 4.19083 9.38812 3.87789 9.65885Z" fill="#231F20"/>
<path d="M6.63833 6.25763H5.73218V10.7765H6.63833V6.25763Z" fill="#231F20"/>
<path d="M8.85595 7.99116C8.31427 7.79421 8.1534 7.6625 8.1534 7.42409C8.1534 7.13628 8.44121 6.92287 8.83081 6.92287C9.10165 6.92287 9.33039 7.02958 9.55912 7.29238L10.0336 6.69238C9.64396 6.36372 9.17831 6.19116 8.66177 6.19116C7.84046 6.19116 7.20578 6.7497 7.20578 7.48933C7.20578 8.11372 7.50238 8.43385 8.34883 8.73019C8.7045 8.85336 8.88234 8.93567 8.97534 8.98506C9.15318 9.10031 9.24618 9.26433 9.24618 9.45336C9.24618 9.82287 8.94958 10.0942 8.54363 10.0942C8.11193 10.0942 7.76442 9.8808 7.55328 9.49421L6.96887 10.0448C7.38361 10.6448 7.89199 10.9076 8.57757 10.9076C9.51765 10.9076 10.1863 10.2997 10.1863 9.42043C10.2026 8.68933 9.88903 8.36067 8.85595 7.99116Z" fill="#231F20"/>
<path d="M10.4817 8.52531C10.4817 9.8564 11.5569 10.8832 12.9368 10.8832C13.3264 10.8832 13.6651 10.8095 14.0711 10.6204V9.58506C13.7072 9.93811 13.3855 10.0777 12.9789 10.0777C12.0646 10.0777 11.4123 9.43689 11.4123 8.51677C11.4123 7.64604 12.081 6.96372 12.9362 6.96372C13.3679 6.96372 13.6985 7.11189 14.0705 7.47287V6.4375C13.6727 6.24055 13.3422 6.15823 12.9525 6.15823C11.5908 6.15884 10.4817 7.21067 10.4817 8.52531Z" fill="#231F20"/>
<path d="M21.2856 9.29726L20.0408 6.25763H19.0504L21.023 10.8912H21.5144L23.5208 6.25763H22.5386L21.2856 9.29726Z" fill="#231F20"/>
<path d="M23.9357 10.7765H26.5096V10.0125H24.8418V8.79665H26.4505V8.03202H24.8418V7.03019H26.5096V6.25763H23.9357V10.7765Z" fill="#231F20"/>
<path d="M30.1078 7.59665C30.1078 6.7503 29.5064 6.26555 28.457 6.26555H27.111V10.7845H28.0171V8.9686H28.1359L29.3889 10.7845H30.5068L29.042 8.87835C29.727 8.73872 30.1078 8.28689 30.1078 7.59665ZM28.2792 8.34421H28.0165V6.97226H28.2961C28.8636 6.97226 29.1683 7.20213 29.1683 7.64604C29.1683 8.09787 28.8636 8.34421 28.2792 8.34421Z" fill="#231F20"/>
<path d="M16.8574 10.9405C18.2275 10.9405 19.3383 9.86276 19.3383 8.53323C19.3383 7.20371 18.2275 6.12592 16.8574 6.12592C15.4872 6.12592 14.3765 7.20371 14.3765 8.53323C14.3765 9.86276 15.4872 10.9405 16.8574 10.9405Z" fill="url(#paint0_linear_90_14)"/>
<path opacity="0.65" d="M16.8574 10.9405C18.2275 10.9405 19.3383 9.86276 19.3383 8.53323C19.3383 7.20371 18.2275 6.12592 16.8574 6.12592C15.4872 6.12592 14.3765 7.20371 14.3765 8.53323C14.3765 9.86276 15.4872 10.9405 16.8574 10.9405Z" fill="url(#paint1_linear_90_14)"/>
<path d="M30.6841 6.43018C30.6841 6.34786 30.625 6.30701 30.5314 6.30701H30.3956V6.70152H30.4974V6.54542L30.6162 6.70152H30.735L30.5992 6.53749C30.6501 6.52896 30.6841 6.48749 30.6841 6.43018ZM30.5144 6.4875H30.4974V6.38079H30.5144C30.5653 6.38079 30.5904 6.39725 30.5904 6.43018C30.5904 6.47103 30.5653 6.4875 30.5144 6.4875Z" fill="#231F20"/>
<path d="M30.5483 6.15884C30.3535 6.15884 30.1926 6.31494 30.1926 6.50397C30.1926 6.69299 30.3535 6.84909 30.5483 6.84909C30.7431 6.84909 30.904 6.69299 30.904 6.50397C30.904 6.31494 30.7431 6.15884 30.5483 6.15884ZM30.5483 6.79177C30.3956 6.79177 30.2605 6.6686 30.2605 6.50397C30.2605 6.34787 30.3874 6.21616 30.5483 6.21616C30.701 6.21616 30.8279 6.34787 30.8279 6.50397C30.8279 6.66006 30.701 6.79177 30.5483 6.79177Z" fill="#231F20"/>
</g>
<defs>
<linearGradient id="paint0_linear_90_14" x1="18.1254" y1="10.4598" x2="16.4829" y2="7.80957" gradientUnits="userSpaceOnUse">
<stop stop-color="#F89F20"/>
<stop offset="0.2502" stop-color="#F79A20"/>
<stop offset="0.5331" stop-color="#F68D20"/>
<stop offset="0.6196" stop-color="#F58720"/>
<stop offset="0.7232" stop-color="#F48120"/>
<stop offset="1" stop-color="#F37521"/>
</linearGradient>
<linearGradient id="paint1_linear_90_14" x1="17.8546" y1="10.4247" x2="15.4658" y2="5.61294" gradientUnits="userSpaceOnUse">
<stop stop-color="#F58720"/>
<stop offset="0.3587" stop-color="#E16F27"/>
<stop offset="0.703" stop-color="#D4602C"/>
<stop offset="0.9816" stop-color="#D05B2E"/>
</linearGradient>
<clipPath id="clip0_90_14">
<rect width="32.1739" height="20" fill="white" transform="translate(0 0.13446)"/>
</clipPath>
</defs>
</svg>
