<svg width="34" height="20" viewBox="0 0 34 20" fill="none" xmlns="http://www.w3.org/2000/svg">
<g clip-path="url(#clip0_10_323)">
<path d="M12.4738 2.12854H21.2526V17.8565H12.4738V2.12854Z" fill="#FF5F00"/>
<path d="M13.0312 9.99256C13.0312 6.79699 14.5361 3.96256 16.8492 2.12851C15.1493 0.794714 13.0034 -0.0111084 10.6624 -0.0111084C5.11618 -0.0111084 0.629272 4.46269 0.629272 9.99256C0.629272 15.5223 5.11618 19.9962 10.6623 19.9962C13.0033 19.9962 15.1492 19.1904 16.8492 17.8565C14.5361 16.0503 13.0312 13.1881 13.0312 9.99256Z" fill="#EB001B"/>
<path d="M33.097 9.99256C33.097 15.5223 28.6101 19.9962 23.064 19.9962C20.723 19.9962 18.5771 19.1904 16.8771 17.8565C19.2181 16.0226 20.6952 13.1881 20.6952 9.99256C20.6952 6.79699 19.1902 3.96256 16.8771 2.12851C18.577 0.794714 20.723 -0.0111084 23.064 -0.0111084C28.6101 -0.0111084 33.0971 4.49054 33.0971 9.99256H33.097Z" fill="#F79E1B"/>
</g>
<defs>
<clipPath id="clip0_10_323">
<rect width="32.5" height="20" fill="white" transform="translate(0.692627)"/>
</clipPath>
</defs>
</svg>
