<svg width="106" height="413" viewBox="0 0 106 413" fill="none" xmlns="http://www.w3.org/2000/svg">
<g clip-path="url(#clip0_1873_5643)">
<path d="M52.8599 251.644L56.8091 255.613L101.421 300.435L105.37 304.405L97.4717 312.325L93.5226 308.355L52.8599 267.478L12.1972 308.375L8.24812 312.345L0.374023 304.409L4.32315 300.439L48.9108 255.593L52.8599 251.623V251.648V251.644Z" fill="#F2FF59" fill-opacity="0.5"/>
<path d="M52.8599 301.969L56.8091 305.939L101.421 350.761L105.37 354.731L97.4717 362.65L93.5226 358.68L52.8599 317.804L12.1972 358.7L8.24812 362.67L0.374023 354.735L4.32315 350.765L48.9108 305.919L52.8599 301.949V301.973V301.969Z" fill="#F2FF59" fill-opacity="0.4"/>
<path d="M52.8599 352.295L56.8091 356.264L101.421 401.086L105.37 405.056L97.4717 412.976L93.5226 409.006L52.8599 368.13L12.1972 409.026L8.24812 412.996L0.374023 405.056L4.32315 401.086L48.9108 356.24L52.8599 352.27V352.295Z" fill="#F2FF59" fill-opacity="0.3"/>
</g>
<g clip-path="url(#clip1_1873_5643)">
<path d="M52.8599 201.322L56.8091 205.292L101.421 250.114L105.37 254.084L97.4717 262.003L93.5226 258.033L52.8599 217.157L12.1972 258.054L8.24812 262.023L0.374023 254.084L4.32315 250.114L48.9108 205.268L52.8599 201.298V201.322Z" fill="#F2FF59" fill-opacity="0.6"/>
<path d="M52.8599 50.3459L56.8091 54.3158L101.421 99.1377L105.37 103.108L97.4717 111.027L93.5226 107.057L52.8599 66.1809L12.2013 107.081L8.25214 111.051L0.374023 103.112L4.32315 99.1417L48.9108 54.2956L52.8599 50.3257V50.35V50.3459Z" fill="#F2FF59" fill-opacity="0.9"/>
<path d="M52.8599 100.671L56.8091 104.641L101.421 149.463L105.37 153.433L97.4717 161.352L93.5226 157.382L52.8599 116.506L12.2013 157.407L8.25214 161.377L0.374023 153.437L4.32315 149.467L48.9108 104.621L52.8599 100.651V100.675V100.671Z" fill="#F2FF59" fill-opacity="0.8"/>
<path d="M52.8599 150.997L56.8091 154.967L101.421 199.789L105.37 203.759L97.4717 211.678L93.5226 207.708L52.8599 166.832L12.1972 207.728L8.24812 211.698L0.374023 203.759L4.32315 199.789L48.9108 154.943L52.8599 150.973V150.997Z" fill="#F2FF59" fill-opacity="0.7"/>
<path fill-rule="evenodd" clip-rule="evenodd" d="M35.9558 17L4.32315 48.816L0.374023 52.7859L8.25214 60.7256L12.2013 56.7558L51.7258 17H35.9558ZM53.9947 17L93.5226 56.7355L97.4717 60.7054L105.37 52.7859L101.421 48.816L69.754 17H53.9947Z" fill="#F2FF59"/>
</g>
<defs>
<clipPath id="clip0_1873_5643">
<rect width="105" height="413" fill="white" transform="translate(0.374023)"/>
</clipPath>
<clipPath id="clip1_1873_5643">
<rect width="105" height="413" fill="white" transform="translate(0.374023)"/>
</clipPath>
</defs>
</svg>
