<svg width="22" height="22" viewBox="0 0 22 22" xmlns="http://www.w3.org/2000/svg">
 <path d="M3.99998 14.5933H8.99998V12.5933H3.99998V14.5933ZM3.99998 10.5933H8.99998V8.59326H3.99998V10.5933ZM3.99998 6.59326H8.99998V4.59326H3.99998V6.59326ZM14 14.5933H16V12.5933H14V14.5933ZM14 10.5933H16V4.59326H14V10.5933ZM1.99998 18.5933C1.44998 18.5933 0.979318 18.3976 0.587985 18.0063C0.195985 17.6143 -1.52588e-05 17.1433 -1.52588e-05 16.5933V2.59326C-1.52588e-05 2.04326 0.195985 1.57226 0.587985 1.18026C0.979318 0.788928 1.44998 0.593262 1.99998 0.593262H18C18.55 0.593262 19.021 0.788928 19.413 1.18026C19.8043 1.57226 20 2.04326 20 2.59326V16.5933C20 17.1433 19.8043 17.6143 19.413 18.0063C19.021 18.3976 18.55 18.5933 18 18.5933H1.99998ZM1.99998 16.5933H18V2.59326H1.99998V16.5933Z" />
</svg>
