<svg viewBox="0 0 19 16">
        <path
          fillRule="evenodd"
          clipRule="evenodd"
          d="M17.1 2H1.9V14H17.1V2ZM1.9 0C0.850659 0 0 0.895431 0 2V14C0 15.1046 0.850659 16 1.9 16H17.1C18.1493 16 19 15.1046 19 14V2C19 0.895431 18.1493 0 17.1 0H1.9Z"
          fill="white"
        />
        <path
          fillRule="evenodd"
          clipRule="evenodd"
          d="M17.1 2H1.9V14H17.1V2ZM1.9 0C0.850659 0 0 0.895431 0 2V14C0 15.1046 0.850659 16 1.9 16H17.1C18.1493 16 19 15.1046 19 14V2C19 0.895431 18.1493 0 17.1 0H1.9Z"
          fill="white"
        />
        <path
          fillRule="evenodd"
          clipRule="evenodd"
          d="M17.1 2H1.9V14H17.1V2ZM1.9 0C0.850659 0 0 0.895431 0 2V14C0 15.1046 0.850659 16 1.9 16H17.1C18.1493 16 19 15.1046 19 14V2C19 0.895431 18.1493 0 17.1 0H1.9Z"
          fill="#25192B"
        />
        <path d="M1.9 6H17.1V8H1.9V6Z" fill="white" />
        <path d="M1.9 6H17.1V8H1.9V6Z" fill="white" />
        <path d="M1.9 6H17.1V8H1.9V6Z" fill="#25192B" />
        <path
          d="M4.75 4C4.75 4.55228 4.32467 5 3.8 5C3.27533 5 2.85 4.55228 2.85 4C2.85 3.44772 3.27533 3 3.8 3C4.32467 3 4.75 3.44772 4.75 4Z"
          fill="white"
        />
        <path
          d="M4.75 4C4.75 4.55228 4.32467 5 3.8 5C3.27533 5 2.85 4.55228 2.85 4C2.85 3.44772 3.27533 3 3.8 3C4.32467 3 4.75 3.44772 4.75 4Z"
          fill="white"
        />
        <path
          d="M4.75 4C4.75 4.55228 4.32467 5 3.8 5C3.27533 5 2.85 4.55228 2.85 4C2.85 3.44772 3.27533 3 3.8 3C4.32467 3 4.75 3.44772 4.75 4Z"
          fill="#25192B"
        />
        <path
          d="M7.6 4C7.6 4.55228 7.17467 5 6.65 5C6.12533 5 5.7 4.55228 5.7 4C5.7 3.44772 6.12533 3 6.65 3C7.17467 3 7.6 3.44772 7.6 4Z"
          fill="white"
        />
        <path
          d="M7.6 4C7.6 4.55228 7.17467 5 6.65 5C6.12533 5 5.7 4.55228 5.7 4C5.7 3.44772 6.12533 3 6.65 3C7.17467 3 7.6 3.44772 7.6 4Z"
          fill="white"
        />
        <path
          d="M7.6 4C7.6 4.55228 7.17467 5 6.65 5C6.12533 5 5.7 4.55228 5.7 4C5.7 3.44772 6.12533 3 6.65 3C7.17467 3 7.6 3.44772 7.6 4Z"
          fill="#25192B"
        />
      </svg>
