<svg width="35" height="35" viewBox="0 0 35 35" fill="inherit" xmlns="http://www.w3.org/2000/svg">
<g mask="url(#mask0_884_9204)">
<path d="M17.1361 26.2339C16.7782 26.2339 16.4547 26.1478 16.1657 25.9758C15.8766 25.8037 15.6495 25.5732 15.4844 25.2841C15.0301 25.2841 14.6413 25.1224 14.3178 24.7989C13.9944 24.4755 13.8326 24.0866 13.8326 23.6324V20.7006C13.0205 20.1637 12.3702 19.4549 11.8815 18.574C11.3929 17.693 11.1486 16.7364 11.1486 15.7041C11.1486 14.0386 11.7301 12.6243 12.8932 11.4612C14.0563 10.2981 15.4706 9.71655 17.1361 9.71655C18.8016 9.71655 20.2159 10.2981 21.379 11.4612C22.5421 12.6243 23.1236 14.0386 23.1236 15.7041C23.1236 16.7639 22.8793 17.7274 22.3906 18.5946C21.902 19.4618 21.2516 20.1637 20.4395 20.7006V23.6324C20.4395 24.0866 20.2778 24.4755 19.9543 24.7989C19.6309 25.1224 19.242 25.2841 18.7878 25.2841C18.6226 25.5732 18.3955 25.8037 18.1065 25.9758C17.8174 26.1478 17.494 26.2339 17.1361 26.2339ZM15.4844 23.6324H18.7878V22.8891H15.4844V23.6324ZM15.4844 22.0632H18.7878V21.2787H15.4844V22.0632ZM15.3192 19.6269H16.5167V17.3971L14.6998 15.5802L15.5669 14.713L17.1361 16.2822L18.7052 14.713L19.5724 15.5802L17.7555 17.3971V19.6269H18.953C19.6963 19.2691 20.3019 18.7426 20.7699 18.0475C21.2379 17.3524 21.4719 16.5712 21.4719 15.7041C21.4719 14.4928 21.0521 13.4674 20.2124 12.6277C19.3728 11.7881 18.3474 11.3683 17.1361 11.3683C15.9248 11.3683 14.8994 11.7881 14.0597 12.6277C13.2201 13.4674 12.8003 14.4928 12.8003 15.7041C12.8003 16.5712 13.0343 17.3524 13.5023 18.0475C13.9703 18.7426 14.5759 19.2691 15.3192 19.6269Z" fill="inherit"/>
</g>
<g mask="url(#mask1_884_9204)">
<path d="M17.1357 33.5587C14.5857 33.5587 12.1951 32.9743 9.96383 31.8056C7.73258 30.6368 5.8732 29.0018 4.3857 26.9004V30.7254H1.55237V22.2254H10.0524V25.0587H6.58153C7.7857 26.8296 9.31452 28.2167 11.168 29.2202C13.0215 30.2237 15.0107 30.7254 17.1357 30.7254C19.851 30.7254 22.3124 29.9462 24.5201 28.3879C26.7277 26.8296 28.2801 24.7636 29.1774 22.19L31.9399 22.8275C30.8774 26.0386 28.9885 28.6299 26.2732 30.6014C23.5579 32.573 20.5121 33.5587 17.1357 33.5587ZM1.6232 16.5587C1.78848 14.9768 2.16626 13.4598 2.75653 12.0077C3.34681 10.5556 4.1614 9.21567 5.20028 7.98789L7.21903 10.0066C6.46348 10.9747 5.84959 12.0077 5.37737 13.1056C4.90515 14.2035 4.61001 15.3546 4.49195 16.5587H1.6232ZM9.20237 8.02331L7.18362 6.00456C8.43501 4.96567 9.78084 4.14518 11.2211 3.5431C12.6614 2.94102 14.1607 2.58095 15.719 2.46289V5.29622C14.5149 5.41428 13.3697 5.70942 12.2836 6.18164C11.1975 6.65386 10.1704 7.26775 9.20237 8.02331ZM25.1044 8.02331C24.1364 7.26775 23.1034 6.65386 22.0055 6.18164C20.9076 5.70942 19.7565 5.41428 18.5524 5.29622V2.46289C20.1343 2.60456 21.6513 2.97053 23.1034 3.56081C24.5555 4.15108 25.8954 4.96567 27.1232 6.00456L25.1044 8.02331ZM29.8149 16.5587C29.6968 15.3546 29.4017 14.2035 28.9294 13.1056C28.4572 12.0077 27.8433 10.9747 27.0878 10.0066L29.1065 7.98789C30.1454 9.21567 30.96 10.5556 31.5503 12.0077C32.1406 13.4598 32.5065 14.9768 32.6482 16.5587H29.8149Z" fill="inherit"/>
</g>
</svg>
