<svg width="19" height="19" viewBox="0 0 19 19" xmlns="http://www.w3.org/2000/svg">
  <path d="M14.5846 15.5139L12.7196 13.6475C11.7994 14.3638 10.6661 14.7519 9.5 14.75C8.33389 14.7519 7.20062 14.3638 6.28044 13.6475L4.41537 15.5139C5.8356 16.7181 7.63794 17.3778 9.5 17.375C11.4386 17.375 13.2144 16.6741 14.5846 15.5139ZM15.5139 14.5846C16.7181 13.1644 17.3778 11.3621 17.375 9.5C17.375 7.56144 16.6741 5.78562 15.5139 4.41537L13.6475 6.28044C14.3379 7.17031 14.75 8.28725 14.75 9.5C14.75 10.7128 14.3379 11.8297 13.6475 12.7196L15.5139 14.5846ZM14.5846 3.48612C13.1644 2.28187 11.3621 1.62216 9.5 1.625C7.56144 1.625 5.78562 2.32588 4.41537 3.48612L6.28044 5.3525C7.20062 4.6362 8.33389 4.24813 9.5 4.25C10.7128 4.25 11.8297 4.66213 12.7196 5.3525L14.5846 3.48612ZM3.48612 4.41537C2.28187 5.8356 1.62216 7.63794 1.625 9.5C1.625 11.4386 2.32588 13.2144 3.48612 14.5846L5.3525 12.7196C4.6362 11.7994 4.24813 10.6661 4.25 9.5C4.25 8.28725 4.66213 7.17031 5.3525 6.28044L3.48612 4.41537ZM12.0436 12.5056C12.21 12.3645 12.3645 12.21 12.5056 12.0436C13.0871 11.3572 13.4375 10.4686 13.4375 9.5C13.4386 8.92765 13.3143 8.362 13.0735 7.84277C12.8327 7.32353 12.4812 6.8633 12.0436 6.49438C11.3333 5.89158 10.4316 5.56125 9.5 5.5625C8.92765 5.56144 8.362 5.68566 7.84277 5.92646C7.32353 6.16726 6.8633 6.51879 6.49438 6.95637C5.91294 7.64281 5.5625 8.53137 5.5625 9.5C5.56144 10.0724 5.68566 10.638 5.92646 11.1572C6.16726 11.6765 6.51879 12.1367 6.95637 12.5056C7.64281 13.0871 8.53137 13.4375 9.5 13.4375C10.4699 13.4375 11.3572 13.0871 12.0436 12.5056ZM9.5 18.6875C7.06332 18.6875 4.72645 17.7195 3.00346 15.9965C1.28047 14.2736 0.3125 11.9367 0.3125 9.5C0.3125 7.06332 1.28047 4.72645 3.00346 3.00346C4.72645 1.28047 7.06332 0.3125 9.5 0.3125C11.9367 0.3125 14.2736 1.28047 15.9965 3.00346C17.7195 4.72645 18.6875 7.06332 18.6875 9.5C18.6875 11.9367 17.7195 14.2736 15.9965 15.9965C14.2736 17.7195 11.9367 18.6875 9.5 18.6875Z" fill="currentColor" />
</svg>
