<svg width="19" height="18" viewBox="0 0 19 18" fill="none" xmlns="http://www.w3.org/2000/svg">
<path d="M17.1781 18L10.8781 11.7C10.3781 12.1 9.80312 12.4167 9.15312 12.65C8.50312 12.8833 7.81146 13 7.07812 13C5.26146 13 3.72412 12.371 2.46613 11.113C1.20746 9.85433 0.578125 8.31667 0.578125 6.5C0.578125 4.68333 1.20746 3.14567 2.46613 1.887C3.72412 0.629 5.26146 0 7.07812 0C8.89479 0 10.4325 0.629 11.6911 1.887C12.9491 3.14567 13.5781 4.68333 13.5781 6.5C13.5781 7.23333 13.4615 7.925 13.2281 8.575C12.9948 9.225 12.6781 9.8 12.2781 10.3L18.5781 16.6L17.1781 18ZM7.07812 11C8.32812 11 9.39079 10.5627 10.2661 9.688C11.1408 8.81267 11.5781 7.75 11.5781 6.5C11.5781 5.25 11.1408 4.18733 10.2661 3.312C9.39079 2.43733 8.32812 2 7.07812 2C5.82812 2 4.76546 2.43733 3.89012 3.312C3.01546 4.18733 2.57812 5.25 2.57812 6.5C2.57812 7.75 3.01546 8.81267 3.89012 9.688C4.76546 10.5627 5.82812 11 7.07812 11Z" fill="#707070"/>
</svg>
