<svg width="66" height="67" viewBox="0 0 66 67" fill="none" xmlns="http://www.w3.org/2000/svg">
<circle cx="33" cy="33.5" r="33" fill="#F5FF75"/>
<mask id="mask0_58_4540" style="mask-type:alpha" maskUnits="userSpaceOnUse" x="15" y="15" width="36" height="37">
<rect x="15" y="15.5" width="36" height="36" fill="#D9D9D9"/>
</mask>
<g mask="url(#mask0_58_4540)">
<path d="M38.925 48.5L32.55 42.125L34.65 40.025L38.925 44.3L47.4 35.825L49.5 37.925L38.925 48.5ZM33 32L45 24.5H21L33 32ZM33 35L21 27.5V42.5H28.725L31.725 45.5H21C20.175 45.5 19.469 45.2065 18.882 44.6195C18.294 44.0315 18 43.325 18 42.5V24.5C18 23.675 18.294 22.969 18.882 22.382C19.469 21.794 20.175 21.5 21 21.5H45C45.825 21.5 46.5315 21.794 47.1195 22.382C47.7065 22.969 48 23.675 48 24.5V31.025L45 34.025V27.5L33 35Z" fill="#25192B"/>
</g>
</svg>
