<svg width="66" height="67" viewBox="0 0 66 67" fill="none" xmlns="http://www.w3.org/2000/svg">
<circle cx="33" cy="33.5" r="33" fill="#F5FF75"/>
<mask id="mask0_58_4557" style="mask-type:alpha" maskUnits="userSpaceOnUse" x="15" y="15" width="36" height="37">
<rect x="15" y="15.5" width="36" height="36" fill="#D9D9D9"/>
</mask>
<g mask="url(#mask0_58_4557)">
<path d="M33 17L46.575 25.1C47.025 25.375 47.375 25.75 47.625 26.225C47.875 26.7 48 27.2 48 27.725V44C48 44.825 47.7065 45.5315 47.1195 46.1195C46.5315 46.7065 45.825 47 45 47H21C20.175 47 19.469 46.7065 18.882 46.1195C18.294 45.5315 18 44.825 18 44V27.725C18 27.2 18.125 26.7 18.375 26.225C18.625 25.75 18.975 25.375 19.425 25.1L33 17ZM33 34.475L44.7 27.5L33 20.525L21.3 27.5L33 34.475ZM33 38L21 30.8V44H45V30.8L33 38Z" fill="#1C1B1F"/>
</g>
</svg>
