<svg width="51" height="17" viewBox="0 0 51 17" fill="none" xmlns="http://www.w3.org/2000/svg">
<path d="M26.3174 5.62685C26.2892 7.85572 28.3038 9.09944 29.8214 9.83898C31.3806 10.5977 31.9043 11.0843 31.8981 11.7628C31.8865 12.8012 30.6544 13.2595 29.5015 13.2773C27.4899 13.3085 26.3203 12.7342 25.3906 12.2999L24.6659 15.6906C25.5988 16.1205 27.3262 16.4954 29.1175 16.5118C33.3222 16.5118 36.0731 14.4363 36.088 11.2182C36.1044 7.13399 30.4388 6.90793 30.4775 5.08241C30.4909 4.52887 31.019 3.93817 32.1764 3.78798C32.7493 3.71211 34.3308 3.65405 36.1238 4.47971L36.8275 1.19912C35.8633 0.848029 34.624 0.511841 33.0811 0.511841C29.1235 0.511841 26.3399 2.61568 26.3174 5.62685ZM43.5896 0.794416C42.8218 0.794416 42.1748 1.24228 41.886 1.92956L35.8797 16.2709H40.0814L40.9175 13.9601H46.0519L46.5369 16.2709H50.2402L47.0086 0.794416H43.5896ZM44.1774 4.97519L45.39 10.7868H42.0691L44.1774 4.97519ZM21.2231 0.79461L17.9112 16.2707H21.9151L25.2255 0.794223L21.2231 0.79461ZM15.3001 0.794223L11.1327 11.3283L9.44687 2.37162C9.24907 1.37176 8.46792 0.794416 7.60045 0.794416H0.788045L0.692627 1.24383C2.09118 1.54731 3.68019 2.03678 4.64289 2.56052C5.23204 2.88045 5.40003 3.16012 5.59358 3.92037L8.7865 16.2709H13.0176L19.5045 0.794416L15.3001 0.794223Z" fill="url(#paint0_linear_10_322)"/>
<defs>
<linearGradient id="paint0_linear_10_322" x1="23.4716" y1="16.8328" x2="23.9348" y2="0.400566" gradientUnits="userSpaceOnUse">
<stop stop-color="#222357"/>
<stop offset="1" stop-color="#254AA5"/>
</linearGradient>
</defs>
</svg>
